<svg width="14" height="14" viewBox="0 0 14 14" fill="currentColor" xmlns="http://www.w3.org/2000/svg">
<mask id="mask0_2500_14954" style="mask-type:alpha" maskUnits="userSpaceOnUse" x="0" y="0" width="14" height="14">
<rect width="14" height="14" fill="#D9D9D9"/>
</mask>
<g mask="url(#mask0_2500_14954)">
<path d="M2.91667 12.25C2.59583 12.25 2.32118 12.1358 2.09271 11.9073C1.86424 11.6788 1.75 11.4042 1.75 11.0833V2.91667C1.75 2.59583 1.86424 2.32118 2.09271 2.09271C2.32118 1.86424 2.59583 1.75 2.91667 1.75H6.41667C6.58194 1.75 6.72049 1.8059 6.83229 1.91771C6.9441 2.02951 7 2.16806 7 2.33333C7 2.49861 6.9441 2.63715 6.83229 2.74896C6.72049 2.86076 6.58194 2.91667 6.41667 2.91667H2.91667V11.0833H6.41667C6.58194 11.0833 6.72049 11.1392 6.83229 11.251C6.9441 11.3628 7 11.5014 7 11.6667C7 11.8319 6.9441 11.9705 6.83229 12.0823C6.72049 12.1941 6.58194 12.25 6.41667 12.25H2.91667ZM10.0188 7.58333H5.83333C5.66806 7.58333 5.52951 7.52743 5.41771 7.41563C5.3059 7.30382 5.25 7.16528 5.25 7C5.25 6.83472 5.3059 6.69618 5.41771 6.58437C5.52951 6.47257 5.66806 6.41667 5.83333 6.41667H10.0188L8.925 5.32292C8.81806 5.21597 8.76458 5.08472 8.76458 4.92917C8.76458 4.77361 8.81806 4.6375 8.925 4.52083C9.03194 4.40417 9.16806 4.3434 9.33333 4.33854C9.49861 4.33368 9.63958 4.38958 9.75625 4.50625L11.8417 6.59167C11.9583 6.70833 12.0167 6.84444 12.0167 7C12.0167 7.15556 11.9583 7.29167 11.8417 7.40833L9.75625 9.49375C9.63958 9.61042 9.50104 9.66632 9.34062 9.66146C9.18021 9.6566 9.04167 9.59583 8.925 9.47917C8.81806 9.3625 8.76701 9.22396 8.77187 9.06354C8.77674 8.90312 8.83264 8.76944 8.93958 8.6625L10.0188 7.58333Z" fill="currentColor"/>
</g>
</svg>