<svg width="148" height="28" viewBox="0 0 148 28" fill="none" xmlns="http://www.w3.org/2000/svg">
<path d="M4 23.724V9.59338H7.81909V12.0589H7.96705C8.22597 11.1818 8.66059 10.5195 9.2709 10.0718C9.88122 9.61791 10.584 9.39099 11.3793 9.39099C11.5765 9.39099 11.7892 9.40325 12.0173 9.42778C12.2454 9.45232 12.4458 9.48605 12.6184 9.52898V13.0064C12.4334 12.9512 12.1776 12.9022 11.8509 12.8592C11.5241 12.8163 11.2251 12.7948 10.9539 12.7948C10.3744 12.7948 9.85656 12.9206 9.40036 13.172C8.95033 13.4174 8.59277 13.7608 8.32769 14.2024C8.06877 14.644 7.93931 15.153 7.93931 15.7295V23.724H4Z" fill="#0844DD"/>
<path d="M19.6857 24C18.2247 24 16.9671 23.7056 15.9129 23.1168C14.8649 22.5219 14.0573 21.6817 13.4901 20.5961C12.923 19.5044 12.6394 18.2134 12.6394 16.7231C12.6394 15.2695 12.923 13.9939 13.4901 12.896C14.0573 11.7982 14.8556 10.9427 15.8851 10.3293C16.9208 9.71604 18.1353 9.40938 19.5285 9.40938C20.4656 9.40938 21.3379 9.55965 22.1455 9.86017C22.9593 10.1546 23.6682 10.5992 24.2724 11.1941C24.8827 11.789 25.3574 12.5373 25.6964 13.4388C26.0355 14.3343 26.205 15.383 26.205 16.5851V17.6615H14.2114V15.2328H22.4969C22.4969 14.6685 22.3736 14.1687 22.127 13.7332C21.8804 13.2978 21.5383 12.9574 21.1006 12.7121C20.669 12.4606 20.1666 12.3349 19.5933 12.3349C18.9953 12.3349 18.4651 12.4729 18.0028 12.7488C17.5466 13.0187 17.189 13.3836 16.9301 13.8436C16.6712 14.2975 16.5386 14.8034 16.5324 15.3615V17.6707C16.5324 18.3698 16.6619 18.9739 16.9208 19.483C17.1859 19.992 17.5589 20.3845 18.0397 20.6605C18.5206 20.9365 19.0908 21.0745 19.7505 21.0745C20.1882 21.0745 20.5889 21.0132 20.9526 20.8905C21.3163 20.7679 21.6277 20.5839 21.8866 20.3385C22.1455 20.0932 22.3428 19.7927 22.4784 19.437L26.1218 19.6762C25.9369 20.5471 25.5577 21.3076 24.9844 21.9577C24.4172 22.6017 23.6836 23.1046 22.7836 23.4664C21.8897 23.8221 20.8571 24 19.6857 24Z" fill="#0844DD"/>
<path d="M33.2285 23.954C32.1496 23.954 31.1725 23.678 30.2971 23.126C29.4279 22.5679 28.7374 21.7492 28.2257 20.6697C27.7202 19.5842 27.4674 18.2533 27.4674 16.6771C27.4674 15.058 27.7295 13.7117 28.2535 12.6385C28.7775 11.559 29.4741 10.7525 30.3433 10.219C31.2187 9.67924 32.1774 9.40938 33.2192 9.40938C34.0145 9.40938 34.6772 9.54431 35.2074 9.81417C35.7437 10.0779 36.1752 10.4091 36.502 10.8077C36.8349 11.2002 37.0876 11.5866 37.2602 11.9669H37.3804V4.88317H41.3105V23.724H37.4267V21.4609H37.2602C37.0753 21.8534 36.8133 22.2429 36.4742 22.6293C36.1413 23.0095 35.7067 23.3254 35.1704 23.5768C34.6402 23.8283 33.9929 23.954 33.2285 23.954ZM34.4768 20.8353C35.1118 20.8353 35.6481 20.6636 36.0858 20.3201C36.5297 19.9706 36.8688 19.483 37.103 18.8574C37.3435 18.2318 37.4637 17.4989 37.4637 16.6587C37.4637 15.8185 37.3465 15.0886 37.1123 14.4692C36.878 13.8497 36.5389 13.3714 36.0951 13.034C35.6512 12.6967 35.1118 12.5281 34.4768 12.5281C33.8295 12.5281 33.2839 12.7029 32.8401 13.0524C32.3962 13.402 32.0602 13.8865 31.8321 14.506C31.604 15.1254 31.49 15.843 31.49 16.6587C31.49 17.4805 31.604 18.2073 31.8321 18.839C32.0664 19.4646 32.4024 19.9552 32.8401 20.3109C33.2839 20.6605 33.8295 20.8353 34.4768 20.8353Z" fill="#0844DD"/>
<path d="M50.1857 24C48.7308 24 47.4793 23.6933 46.4313 23.08C45.3895 22.4606 44.588 21.602 44.0271 20.5041C43.4722 19.4063 43.1948 18.1429 43.1948 16.7139C43.1948 15.2665 43.4753 13.9969 44.0363 12.9052C44.6035 11.8074 45.408 10.9519 46.4498 10.3385C47.4917 9.71911 48.7308 9.40938 50.1672 9.40938C51.4063 9.40938 52.4913 9.63324 53.4222 10.081C54.3531 10.5287 55.0898 11.1573 55.6323 11.9669C56.1748 12.7764 56.4738 13.7271 56.5293 14.8188H52.8119C52.7071 14.1135 52.4297 13.5462 51.9796 13.1168C51.5358 12.6814 50.9532 12.4637 50.2319 12.4637C49.6216 12.4637 49.0884 12.6293 48.6322 12.9604C48.1821 13.2855 47.8307 13.7608 47.578 14.3864C47.3252 15.012 47.1988 15.7694 47.1988 16.6587C47.1988 17.5603 47.3221 18.3269 47.5687 18.9586C47.8215 19.5903 48.176 20.0718 48.6322 20.4029C49.0884 20.7341 49.6216 20.8997 50.2319 20.8997C50.682 20.8997 51.0857 20.8077 51.4433 20.6237C51.807 20.4397 52.106 20.173 52.3403 19.8234C52.5807 19.4676 52.7379 19.0414 52.8119 18.5446H56.5293C56.4676 19.624 56.1717 20.5747 55.6415 21.3965C55.1175 22.2122 54.3932 22.85 53.4684 23.31C52.5437 23.77 51.4495 24 50.1857 24Z" fill="#0844DD"/>
<path d="M62.3205 23.9908C61.4143 23.9908 60.6067 23.8344 59.8977 23.5216C59.1888 23.2027 58.6278 22.7335 58.2147 22.1141C57.8079 21.4885 57.6044 20.7096 57.6044 19.7774C57.6044 18.9923 57.7493 18.333 58.0391 17.7994C58.3288 17.2659 58.7233 16.8366 59.2227 16.5115C59.722 16.1864 60.2892 15.9411 60.9242 15.7755C61.5653 15.6099 62.2373 15.4934 62.9401 15.4259C63.7662 15.3401 64.4319 15.2604 64.9375 15.1868C65.443 15.107 65.8098 14.9905 66.0379 14.8372C66.266 14.6838 66.38 14.4569 66.38 14.1564V14.1012C66.38 13.5186 66.1951 13.0678 65.8252 12.7488C65.4615 12.4299 64.9436 12.2705 64.2717 12.2705C63.5627 12.2705 62.9986 12.4269 62.5794 12.7397C62.1602 13.0463 61.8828 13.4327 61.7472 13.8988L58.1038 13.6044C58.2887 12.7458 58.6525 12.0037 59.195 11.3781C59.7375 10.7464 60.4372 10.2619 61.2941 9.92456C62.1571 9.58111 63.1558 9.40938 64.2902 9.40938C65.0793 9.40938 65.8344 9.50138 66.5557 9.68537C67.2832 9.86937 67.9274 10.1546 68.4884 10.5409C69.0555 10.9273 69.5025 11.4241 69.8292 12.0313C70.156 12.6323 70.3193 13.353 70.3193 14.1932V23.724H66.5835V21.7645H66.4725C66.2444 22.2061 65.9392 22.5955 65.557 22.9328C65.1748 23.264 64.7155 23.5247 64.1792 23.7148C63.6429 23.8988 63.0233 23.9908 62.3205 23.9908ZM63.4487 21.2861C64.0282 21.2861 64.5398 21.1726 64.9837 20.9457C65.4276 20.7127 65.7759 20.3999 66.0286 20.0074C66.2814 19.6148 66.4078 19.1702 66.4078 18.6734V17.1739C66.2845 17.2536 66.1149 17.3272 65.8992 17.3947C65.6896 17.456 65.4522 17.5143 65.1871 17.5695C64.9221 17.6185 64.657 17.6645 64.3919 17.7075C64.1268 17.7443 63.8864 17.778 63.6706 17.8086C63.2082 17.8761 62.8044 17.9834 62.4592 18.1306C62.114 18.2778 61.8458 18.4772 61.6547 18.7286C61.4636 18.9739 61.368 19.2806 61.368 19.6486C61.368 20.1822 61.5622 20.59 61.9506 20.8721C62.3452 21.1481 62.8445 21.2861 63.4487 21.2861Z" fill="#0844DD"/>
<path d="M80.1493 9.59338V12.5373H71.5956V9.59338H80.1493ZM73.5375 6.20791H77.4769V19.3818C77.4769 19.7436 77.5323 20.0258 77.6433 20.2282C77.7543 20.4244 77.9084 20.5624 78.1057 20.6421C78.3091 20.7219 78.5434 20.7617 78.8084 20.7617C78.9934 20.7617 79.1783 20.7464 79.3633 20.7157C79.5482 20.6789 79.69 20.6513 79.7887 20.6329L80.4082 23.5492C80.2109 23.6105 79.9335 23.6811 79.576 23.7608C79.2184 23.8467 78.7838 23.8988 78.2721 23.9172C77.3227 23.954 76.4905 23.8283 75.7754 23.54C75.0664 23.2518 74.5147 22.804 74.1201 22.1969C73.7256 21.5897 73.5314 20.8231 73.5375 19.897V6.20791Z" fill="#0844DD"/>
<path d="M84.2367 23.9632C83.6264 23.9632 83.1024 23.7485 82.6647 23.3192C82.2332 22.8838 82.0174 22.3625 82.0174 21.7553C82.0174 21.1542 81.5859 20.0595 82.0174 19.6302C82.4551 19.2009 83.6264 19.5658 84.2367 19.5658C84.8286 19.5658 86.0122 19.2009 86.4561 19.6302C86.8999 20.0595 86.4561 21.1542 86.4561 21.7553C86.4561 22.1601 86.3513 22.5311 86.1417 22.8684C85.9382 23.1996 85.67 23.4664 85.3372 23.6688C85.0042 23.8651 84.6375 23.9632 84.2367 23.9632Z" fill="#0844DD"/>
<path d="M100.727 13.6228L97.1206 13.8436C97.0589 13.537 96.9264 13.261 96.7229 13.0156C96.5195 12.7642 96.2513 12.5649 95.9184 12.4177C95.5917 12.2643 95.2002 12.1877 94.744 12.1877C94.1337 12.1877 93.619 12.3165 93.1998 12.5741C92.7806 12.8255 92.571 13.1628 92.571 13.586C92.571 13.9233 92.7066 14.2085 92.9778 14.4416C93.2491 14.6746 93.7145 14.8617 94.3742 15.0028L96.9449 15.5179C98.3258 15.8001 99.3553 16.2539 100.033 16.8795C100.712 17.5051 101.051 18.3269 101.051 19.345C101.051 20.2711 100.776 21.0837 100.228 21.7829C99.6851 22.4821 98.9392 23.0279 97.9898 23.4204C97.0466 23.8068 95.9585 24 94.7256 24C92.8453 24 91.3472 23.6105 90.2314 22.8316C89.1217 22.0466 88.4714 20.9795 88.2803 19.6302L92.1548 19.4278C92.272 19.9982 92.5555 20.4336 93.0056 20.7341C93.4556 21.0285 94.032 21.1757 94.7348 21.1757C95.4253 21.1757 95.9801 21.0439 96.3993 20.7801C96.8247 20.5103 97.0404 20.1638 97.0466 19.7406C97.0404 19.3849 96.8894 19.0935 96.5935 18.8666C96.2976 18.6335 95.8414 18.4557 95.2249 18.333L92.7652 17.8454C91.3781 17.5695 90.3455 17.0911 89.6673 16.4103C88.9954 15.7295 88.6594 14.8617 88.6594 13.8068C88.6594 12.8991 88.906 12.1171 89.3992 11.4609C89.8985 10.8047 90.5982 10.2987 91.4983 9.94296C92.4045 9.58724 93.4649 9.40938 94.6793 9.40938C96.4733 9.40938 97.885 9.78657 98.9145 10.5409C99.9502 11.2953 100.554 12.3226 100.727 13.6228Z" fill="#0844DD"/>
<path d="M110.305 9.59338V12.5373H101.751V9.59338H110.305ZM103.693 6.20791H107.633V19.3818C107.633 19.7436 107.688 20.0258 107.799 20.2282C107.91 20.4244 108.064 20.5624 108.261 20.6421C108.465 20.7219 108.699 20.7617 108.964 20.7617C109.149 20.7617 109.334 20.7464 109.519 20.7157C109.704 20.6789 109.846 20.6513 109.944 20.6329L110.564 23.5492C110.367 23.6105 110.089 23.6811 109.732 23.7608C109.374 23.8467 108.939 23.8988 108.428 23.9172C107.478 23.954 106.646 23.8283 105.931 23.54C105.222 23.2518 104.67 22.804 104.276 22.1969C103.881 21.5897 103.687 20.8231 103.693 19.897V6.20791Z" fill="#0844DD"/>
<path d="M116.14 23.9908C115.234 23.9908 114.426 23.8344 113.717 23.5216C113.008 23.2027 112.447 22.7335 112.034 22.1141C111.627 21.4885 111.424 20.7096 111.424 19.7774C111.424 18.9923 111.569 18.333 111.859 17.7994C112.148 17.2659 112.543 16.8366 113.042 16.5115C113.542 16.1864 114.109 15.9411 114.744 15.7755C115.385 15.6099 116.057 15.4934 116.76 15.4259C117.586 15.3401 118.252 15.2604 118.757 15.1868C119.263 15.107 119.629 14.9905 119.857 14.8372C120.086 14.6838 120.2 14.4569 120.2 14.1564V14.1012C120.2 13.5186 120.015 13.0678 119.645 12.7488C119.281 12.4299 118.763 12.2705 118.091 12.2705C117.382 12.2705 116.818 12.4269 116.399 12.7397C115.98 13.0463 115.702 13.4327 115.567 13.8988L111.923 13.6044C112.108 12.7458 112.472 12.0037 113.015 11.3781C113.557 10.7464 114.257 10.2619 115.114 9.92456C115.977 9.58111 116.975 9.40938 118.11 9.40938C118.899 9.40938 119.654 9.50138 120.375 9.68537C121.103 9.86937 121.747 10.1546 122.308 10.5409C122.875 10.9273 123.322 11.4241 123.649 12.0313C123.976 12.6323 124.139 13.353 124.139 14.1932V23.724H120.403V21.7645H120.292C120.064 22.2061 119.759 22.5955 119.377 22.9328C118.994 23.264 118.535 23.5247 117.999 23.7148C117.462 23.8988 116.843 23.9908 116.14 23.9908ZM117.268 21.2861C117.848 21.2861 118.359 21.1726 118.803 20.9457C119.247 20.7127 119.595 20.3999 119.848 20.0074C120.101 19.6148 120.227 19.1702 120.227 18.6734V17.1739C120.104 17.2536 119.935 17.3272 119.719 17.3947C119.509 17.456 119.272 17.5143 119.007 17.5695C118.742 17.6185 118.477 17.6645 118.211 17.7075C117.946 17.7443 117.706 17.778 117.49 17.8086C117.028 17.8761 116.624 17.9834 116.279 18.1306C115.934 18.2778 115.665 18.4772 115.474 18.7286C115.283 18.9739 115.188 19.2806 115.188 19.6486C115.188 20.1822 115.382 20.59 115.77 20.8721C116.165 21.1481 116.664 21.2861 117.268 21.2861Z" fill="#0844DD"/>
<path d="M134.052 9.59338V12.5373H125.286V9.59338H134.052ZM127.292 23.724V8.57222C127.292 7.54799 127.493 6.69856 127.894 6.02392C128.3 5.34928 128.855 4.8433 129.558 4.50598C130.261 4.16866 131.059 4 131.953 4C132.557 4 133.109 4.046 133.608 4.138C134.114 4.22999 134.49 4.31279 134.736 4.38639L134.034 7.33027C133.88 7.2812 133.688 7.2352 133.46 7.19227C133.238 7.14934 133.01 7.12788 132.776 7.12788C132.197 7.12788 131.793 7.2628 131.565 7.53266C131.337 7.79638 131.222 8.16743 131.222 8.64582V23.724H127.292Z" fill="#0844DD"/>
<path d="M143.316 9.59338V12.5373H134.549V9.59338H143.316ZM136.556 23.724V8.57222C136.556 7.54799 136.756 6.69856 137.157 6.02392C137.564 5.34928 138.119 4.8433 138.822 4.50598C139.524 4.16866 140.323 4 141.217 4C141.821 4 142.372 4.046 142.872 4.138C143.377 4.22999 143.753 4.31279 144 4.38639L143.297 7.33027C143.143 7.2812 142.952 7.2352 142.724 7.19227C142.502 7.14934 142.274 7.12788 142.04 7.12788C141.46 7.12788 141.056 7.2628 140.828 7.53266C140.6 7.79638 140.486 8.16743 140.486 8.64582V23.724H136.556Z" fill="#0844DD"/>
</svg>
