<svg viewBox="0 0 126 34" fill="currentColor" xmlns="http://www.w3.org/2000/svg">
<path d="M0 6.22148V0.452472H26.2985V6.22148H16.4952V33.5475H9.80332V6.22148H0Z" fill="currentColor"/>
<path d="M54.1903 17C54.1903 20.609 53.5284 23.6793 52.2046 26.211C50.8913 28.7427 49.0984 30.6765 46.8261 32.0124C44.5642 33.3375 42.0208 34 39.1961 34C36.3504 34 33.7967 33.3321 31.5348 31.9962C29.2729 30.6603 27.4853 28.7266 26.1719 26.1949C24.8585 23.6632 24.2018 20.5982 24.2018 17C24.2018 13.391 24.8585 10.3207 26.1719 7.78898C27.4853 5.25729 29.2729 3.3289 31.5348 2.0038C33.7967 0.667935 36.3504 0 39.1961 0C42.0208 0 44.5642 0.667935 46.8261 2.0038C49.0984 3.3289 50.8913 5.25729 52.2046 7.78898C53.5284 10.3207 54.1903 13.391 54.1903 17ZM47.3264 17C47.3264 14.6622 46.9877 12.6907 46.3101 11.0856C45.643 9.48036 44.6997 8.26299 43.4801 7.43346C42.2606 6.60393 40.8326 6.18917 39.1961 6.18917C37.5596 6.18917 36.1316 6.60393 34.912 7.43346C33.6925 8.26299 32.7439 9.48036 32.0664 11.0856C31.3993 12.6907 31.0657 14.6622 31.0657 17C31.0657 19.3378 31.3993 21.3093 32.0664 22.9144C32.7439 24.5196 33.6925 25.737 34.912 26.5665C36.1316 27.3961 37.5596 27.8108 39.1961 27.8108C40.8326 27.8108 42.2606 27.3961 43.4801 26.5665C44.6997 25.737 45.643 24.5196 46.3101 22.9144C46.9877 21.3093 47.3264 19.3378 47.3264 17Z" fill="currentColor"/>
<path d="M54.8024 33.5475V0.452472H67.4357C69.8644 0.452472 71.9335 0.931876 73.6429 1.89069C75.3524 2.83872 76.6553 4.15843 77.5517 5.84981C78.4586 7.53042 78.912 9.46958 78.912 11.6673C78.912 13.865 78.4534 15.8042 77.5361 17.4848C76.6188 19.1654 75.2898 20.4743 73.5491 21.4116C71.8188 22.3489 69.7237 22.8175 67.2637 22.8175H59.2116V17.2101H66.1693C67.4722 17.2101 68.5458 16.9785 69.3901 16.5152C70.2449 16.0412 70.8807 15.3894 71.2976 14.5599C71.725 13.7196 71.9387 12.7554 71.9387 11.6673C71.9387 10.5684 71.725 9.60963 71.2976 8.79087C70.8807 7.96134 70.2449 7.32034 69.3901 6.86787C68.5354 6.40463 67.4514 6.17301 66.138 6.17301H61.5725V33.5475H54.8024Z" fill="currentColor"/>
<path d="M78.9065 33.5475V0.452472H85.6766V14.1074H99.42V0.452472H106.174V33.5475H99.42V19.8764H85.6766V33.5475H78.9065Z" fill="currentColor"/>
<path d="M100.749 33.5475V0.452472H113.382C115.801 0.452472 117.864 0.899557 119.574 1.79373C121.294 2.67712 122.602 3.93219 123.498 5.55894C124.405 7.1749 124.859 9.07636 124.859 11.2633C124.859 13.461 124.4 15.3517 123.483 16.9354C122.565 18.5082 121.236 19.7148 119.496 20.5551C117.765 21.3954 115.67 21.8156 113.21 21.8156H104.752V16.192H112.116C113.408 16.192 114.482 16.0089 115.337 15.6426C116.191 15.2763 116.827 14.7269 117.244 13.9943C117.672 13.2617 117.885 12.3514 117.885 11.2633C117.885 10.1644 117.672 9.23796 117.244 8.48384C116.827 7.72972 116.186 7.15874 115.321 6.77091C114.466 6.37231 113.388 6.17301 112.085 6.17301H107.519V33.5475H100.749ZM118.042 18.4867L126 33.5475H118.526L110.74 18.4867H118.042Z" fill="currentColor"/>
</svg>
