<svg width="34" height="35" viewBox="0 0 34 35" fill="none" xmlns="http://www.w3.org/2000/svg">
<path d="M10.9997 25.8714L16.9997 19.8179L22.9997 25.8714L25.333 23.5173L19.333 17.4637L25.333 11.4102L22.9997 9.05609L16.9997 15.1096L10.9997 9.05609L8.66634 11.4102L14.6663 17.4637L8.66634 23.5173L10.9997 25.8714ZM16.9997 34.2791C14.6941 34.2791 12.5275 33.8377 10.4997 32.9549C8.4719 32.0721 6.70801 30.874 5.20801 29.3606C3.70801 27.8472 2.52051 26.0676 1.64551 24.0217C0.770508 21.9759 0.333008 19.7899 0.333008 17.4637C0.333008 15.1376 0.770508 12.9516 1.64551 10.9058C2.52051 8.85991 3.70801 7.08029 5.20801 5.56692C6.70801 4.05354 8.4719 2.85545 10.4997 1.97264C12.5275 1.08984 14.6941 0.648438 16.9997 0.648438C19.3052 0.648438 21.4719 1.08984 23.4997 1.97264C25.5275 2.85545 27.2913 4.05354 28.7913 5.56692C30.2913 7.08029 31.4788 8.85991 32.3538 10.9058C33.2288 12.9516 33.6663 15.1376 33.6663 17.4637C33.6663 19.7899 33.2288 21.9759 32.3538 24.0217C31.4788 26.0676 30.2913 27.8472 28.7913 29.3606C27.2913 30.874 25.5275 32.0721 23.4997 32.9549C21.4719 33.8377 19.3052 34.2791 16.9997 34.2791ZM16.9997 30.916C20.7219 30.916 23.8747 29.6128 26.458 27.0064C29.0413 24.4001 30.333 21.2192 30.333 17.4637C30.333 13.7083 29.0413 10.5274 26.458 7.92106C23.8747 5.31469 20.7219 4.0115 16.9997 4.0115C13.2775 4.0115 10.1247 5.31469 7.54134 7.92106C4.95801 10.5274 3.66634 13.7083 3.66634 17.4637C3.66634 21.2192 4.95801 24.4001 7.54134 27.0064C10.1247 29.6128 13.2775 30.916 16.9997 30.916Z" fill="white"/>
</svg>
