<svg viewBox="0 0 24 24" fill="none" xmlns="http://www.w3.org/2000/svg">
<mask id="mask0_1811_2468" style="mask-type:alpha" maskUnits="userSpaceOnUse" x="0" y="0" width="24" height="24">
<rect width="24" height="24" fill="#D9D9D9"/>
</mask>
<g mask="url(#mask0_1811_2468)">
<path d="M8.4 17.3232L12 13.6911L15.6 17.3232L17 15.9107L13.4 12.2786L17 8.64653L15.6 7.23405L12 10.8662L8.4 7.23405L7 8.64653L10.6 12.2786L7 15.9107L8.4 17.3232ZM12 22.3678C10.6167 22.3678 9.31667 22.103 8.1 21.5733C6.88333 21.0436 5.825 20.3248 4.925 19.4167C4.025 18.5087 3.3125 17.4409 2.7875 16.2134C2.2625 14.9859 2 13.6743 2 12.2786C2 10.883 2.2625 9.57137 2.7875 8.34386C3.3125 7.11634 4.025 6.04857 4.925 5.14054C5.825 4.23251 6.88333 3.51366 8.1 2.98398C9.31667 2.45429 10.6167 2.18945 12 2.18945C13.3833 2.18945 14.6833 2.45429 15.9 2.98398C17.1167 3.51366 18.175 4.23251 19.075 5.14054C19.975 6.04857 20.6875 7.11634 21.2125 8.34386C21.7375 9.57137 22 10.883 22 12.2786C22 13.6743 21.7375 14.9859 21.2125 16.2134C20.6875 17.4409 19.975 18.5087 19.075 19.4167C18.175 20.3248 17.1167 21.0436 15.9 21.5733C14.6833 22.103 13.3833 22.3678 12 22.3678ZM12 20.35C14.2333 20.35 16.125 19.5681 17.675 18.0043C19.225 16.4404 20 14.5319 20 12.2786C20 10.0254 19.225 8.11685 17.675 6.55303C16.125 4.9892 14.2333 4.20729 12 4.20729C9.76667 4.20729 7.875 4.9892 6.325 6.55303C4.775 8.11685 4 10.0254 4 12.2786C4 14.5319 4.775 16.4404 6.325 18.0043C7.875 19.5681 9.76667 20.35 12 20.35Z"/>
</g>
</svg>
