<svg  viewBox="0 0 118 117" fill="none" xmlns="http://www.w3.org/2000/svg">
<mask id="mask0_1570_14064" style="mask-type:alpha" maskUnits="userSpaceOnUse" x="0" y="0" width="118" height="117">
<rect x="0.5" width="117" height="117" fill="#D9D9D9"/>
</mask>
<g mask="url(#mask0_1570_14064)">
<path d="M52.175 80.925L86.5438 46.5563L79.7188 39.7313L52.175 67.275L38.2812 53.3812L31.4562 60.2063L52.175 80.925ZM59 107.25C52.2562 107.25 45.9188 105.97 39.9875 103.411C34.0562 100.852 28.8969 97.3781 24.5094 92.9906C20.1219 88.6031 16.6484 83.4438 14.0891 77.5125C11.5297 71.5813 10.25 65.2438 10.25 58.5C10.25 51.7562 11.5297 45.4188 14.0891 39.4875C16.6484 33.5562 20.1219 28.3969 24.5094 24.0094C28.8969 19.6219 34.0562 16.1484 39.9875 13.5891C45.9188 11.0297 52.2562 9.75 59 9.75C65.7438 9.75 72.0813 11.0297 78.0125 13.5891C83.9438 16.1484 89.1031 19.6219 93.4906 24.0094C97.8781 28.3969 101.352 33.5562 103.911 39.4875C106.47 45.4188 107.75 51.7562 107.75 58.5C107.75 65.2438 106.47 71.5813 103.911 77.5125C101.352 83.4438 97.8781 88.6031 93.4906 92.9906C89.1031 97.3781 83.9438 100.852 78.0125 103.411C72.0813 105.97 65.7438 107.25 59 107.25ZM59 97.5C69.8875 97.5 79.1094 93.7219 86.6656 86.1656C94.2219 78.6094 98 69.3875 98 58.5C98 47.6125 94.2219 38.3906 86.6656 30.8344C79.1094 23.2781 69.8875 19.5 59 19.5C48.1125 19.5 38.8906 23.2781 31.3344 30.8344C23.7781 38.3906 20 47.6125 20 58.5C20 69.3875 23.7781 78.6094 31.3344 86.1656C38.8906 93.7219 48.1125 97.5 59 97.5Z" fill="#03CE68"/>
</g>
</svg>
