<svg width="22" height="21" viewBox="0 0 22 21" fill="none" xmlns="http://www.w3.org/2000/svg">
<path d="M15.1 11.2998L13.65 9.84981C13.8 9.06647 13.575 8.33314 12.975 7.64981C12.375 6.96647 11.6 6.69981 10.65 6.84981L9.2 5.39981C9.48333 5.26647 9.77083 5.16647 10.0625 5.0998C10.3542 5.03314 10.6667 4.9998 11 4.9998C12.25 4.9998 13.3125 5.4373 14.1875 6.3123C15.0625 7.1873 15.5 8.24981 15.5 9.49981C15.5 9.83314 15.4667 10.1456 15.4 10.4373C15.3333 10.729 15.2333 11.0165 15.1 11.2998ZM18.3 14.4498L16.85 13.0498C17.4833 12.5665 18.0458 12.0373 18.5375 11.4623C19.0292 10.8873 19.45 10.2331 19.8 9.49981C18.9667 7.81647 17.7708 6.47897 16.2125 5.48731C14.6542 4.49564 12.9167 3.9998 11 3.9998C10.5167 3.9998 10.0417 4.03314 9.575 4.0998C9.10833 4.16647 8.65 4.26647 8.2 4.39981L6.65 2.8498C7.33333 2.56647 8.03333 2.35397 8.75 2.2123C9.46667 2.07064 10.2167 1.9998 11 1.9998C13.5167 1.9998 15.7583 2.69564 17.725 4.08731C19.6917 5.47897 21.1167 7.28314 22 9.49981C21.6167 10.4831 21.1125 11.3956 20.4875 12.2373C19.8625 13.079 19.1333 13.8165 18.3 14.4498ZM18.8 20.5998L14.6 16.4498C14.0167 16.6331 13.4292 16.7706 12.8375 16.8623C12.2458 16.954 11.6333 16.9998 11 16.9998C8.48333 16.9998 6.24167 16.304 4.275 14.9123C2.30833 13.5206 0.883333 11.7165 0 9.49981C0.35 8.61647 0.791667 7.79564 1.325 7.03731C1.85833 6.27897 2.46667 5.5998 3.15 4.9998L0.4 2.1998L1.8 0.799805L20.2 19.1998L18.8 20.5998ZM4.55 6.39981C4.06667 6.83314 3.625 7.30814 3.225 7.82481C2.825 8.34147 2.48333 8.89981 2.2 9.49981C3.03333 11.1831 4.22917 12.5206 5.7875 13.5123C7.34583 14.504 9.08333 14.9998 11 14.9998C11.3333 14.9998 11.6583 14.979 11.975 14.9373C12.2917 14.8956 12.6167 14.8498 12.95 14.7998L12.05 13.8498C11.8667 13.8998 11.6917 13.9373 11.525 13.9623C11.3583 13.9873 11.1833 13.9998 11 13.9998C9.75 13.9998 8.6875 13.5623 7.8125 12.6873C6.9375 11.8123 6.5 10.7498 6.5 9.49981C6.5 9.31647 6.5125 9.14147 6.5375 8.97481C6.5625 8.80814 6.6 8.63314 6.65 8.44981L4.55 6.39981Z" fill="#75777E"/>
</svg>
