<svg width="248" height="408" viewBox="0 0 248 408" fill="none" xmlns="http://www.w3.org/2000/svg">
<g clip-path="url(#clip0_3041_12193)">
<path d="M105.151 236.035C130.625 236.035 151.276 215.385 151.276 189.911C151.276 164.437 130.625 143.787 105.151 143.787C79.6778 143.787 59.0273 164.437 59.0273 189.911C59.0273 215.385 79.6778 236.035 105.151 236.035Z" fill="#14142B" stroke="#14142B" stroke-width="1.35073" stroke-linecap="round" stroke-linejoin="round"/>
<path d="M151.272 186.997H59.0273V195.533H151.272V186.997Z" fill="#14142B" stroke="#14142B" stroke-width="1.35073" stroke-linecap="round" stroke-linejoin="round"/>
<path d="M151.284 195.533L153.921 218.979H56.5703L59.0354 195.533" fill="#14142B"/>
<path d="M151.284 195.533L153.921 218.979H56.5703L59.0354 195.533" stroke="#14142B" stroke-width="1.35073" stroke-linecap="round" stroke-linejoin="round"/>
<path d="M54.7337 117.164C64.217 117.164 71.9048 109.476 71.9048 99.9928C71.9048 90.5094 64.217 82.8217 54.7337 82.8217C45.2503 82.8217 37.5625 90.5094 37.5625 99.9928C37.5625 109.476 45.2503 117.164 54.7337 117.164Z" fill="#14142B" stroke="#14142B" stroke-width="1.35073" stroke-linecap="round" stroke-linejoin="round"/>
<path d="M38.5507 94.2621C31.5708 116.701 25.7188 151.374 25.7188 151.374L53.4898 158.692C53.4898 158.692 66.0077 136.743 71.6301 103.16L42.3766 88.0892C42.3766 88.0892 36.8623 86.6203 35.856 88.9098C34.8497 91.1993 38.5507 94.2621 38.5507 94.2621Z" fill="#14142B" stroke="#14142B" stroke-width="1.35073" stroke-linecap="round" stroke-linejoin="round"/>
<path d="M147.488 110.603C156.971 110.603 164.659 102.915 164.659 93.4317C164.659 83.9483 156.971 76.2605 147.488 76.2605C138.004 76.2605 130.316 83.9483 130.316 93.4317C130.316 102.915 138.004 110.603 147.488 110.603Z" fill="#14142B" stroke="#14142B" stroke-width="1.35073" stroke-linecap="round" stroke-linejoin="round"/>
<path d="M161.462 83.463C174.355 103.106 188.976 133.866 188.976 133.866L164.872 149.507C164.872 149.507 146.786 131.86 132.117 101.131L156.093 78.5767C156.093 78.5767 160.989 75.6422 162.586 77.5637C164.184 79.4851 161.462 83.463 161.462 83.463Z" fill="#14142B" stroke="#14142B" stroke-width="1.35073" stroke-linecap="round" stroke-linejoin="round"/>
<path d="M176.966 156.095C184.902 156.095 191.334 149.662 191.334 141.727C191.334 133.792 184.902 127.359 176.966 127.359C169.031 127.359 162.598 133.792 162.598 141.727C162.598 149.662 169.031 156.095 176.966 156.095Z" fill="#14142B" stroke="#14142B" stroke-width="1.35073" stroke-linecap="round" stroke-linejoin="round"/>
<path d="M191.212 134.879C191.824 133.933 192.742 132.35 192.364 131.84C191.813 131.083 190.51 131.36 188.197 132.785L164.194 148.319C164.194 148.319 160.899 151.294 161.949 152.465C162.624 153.218 166.467 151.54 166.467 151.54L192.806 184.565L217.214 152.985L191.212 134.879Z" fill="#14142B" stroke="#14142B" stroke-width="1.35073" stroke-linecap="round" stroke-linejoin="round"/>
<path d="M206.727 190.897C217.389 190.897 226.033 181.672 226.033 170.292C226.033 158.912 217.389 149.686 206.727 149.686C196.065 149.686 187.422 158.912 187.422 170.292C187.422 181.672 196.065 190.897 206.727 190.897Z" fill="#14142B" stroke="#14142B" stroke-width="1.35073" stroke-linecap="round" stroke-linejoin="round"/>
<path d="M183.82 132.957C177.958 133.599 173.379 137.172 173.379 137.172" stroke="white" stroke-width="1.35073" stroke-linecap="round" stroke-linejoin="round"/>
<path d="M203.661 175.475C210.097 175.475 215.315 170.258 215.315 163.822C215.315 157.386 210.097 152.168 203.661 152.168C197.225 152.168 192.008 157.386 192.008 163.822C192.008 170.258 197.225 175.475 203.661 175.475Z" fill="#14142B"/>
<path d="M195.944 153.664C186.789 159.367 187.735 166.985 188.974 171.325C190.213 175.664 195.792 179.79 196.828 180.547C199.098 182.212 208.799 180.499 218.21 177.038C227.622 173.577 228.385 166.337 224.262 163.933C220.139 161.528 219.244 161.154 217.218 158.918C215.033 156.544 211.089 144.236 195.944 153.664Z" fill="white" stroke="#14142B" stroke-width="1.35073" stroke-linecap="round" stroke-linejoin="round"/>
<path d="M233.467 178.332C235.951 178.332 237.965 176.318 237.965 173.834C237.965 171.35 235.951 169.336 233.467 169.336C230.983 169.336 228.969 171.35 228.969 173.834C228.969 176.318 230.983 178.332 233.467 178.332Z" fill="white" stroke="#14142B" stroke-width="1.35073" stroke-linecap="round" stroke-linejoin="round"/>
<path d="M222.052 170.859C223.713 170.859 225.06 169.512 225.06 167.85C225.06 166.188 223.713 164.841 222.052 164.841C220.39 164.841 219.043 166.188 219.043 167.85C219.043 169.512 220.39 170.859 222.052 170.859Z" fill="white"/>
<path d="M224.271 163.93L235.506 169.819L231.015 177.599L219.973 171.838L224.271 163.93Z" fill="white"/>
<path d="M224.27 163.93L235.504 169.819" stroke="#14142B" stroke-width="1.35073" stroke-linecap="round" stroke-linejoin="round"/>
<path d="M231.015 177.599L219.973 171.835" stroke="#14142B" stroke-width="1.35073" stroke-linecap="round" stroke-linejoin="round"/>
<path d="M231.012 177.599C234.237 179.436 242.996 182.252 246.157 179.709C249.317 177.167 242.669 170.291 234.142 169.383C232.656 169.302 231.559 170.47 231.559 170.47" fill="white"/>
<path d="M231.012 177.599C234.237 179.436 242.996 182.252 246.157 179.709C249.317 177.167 242.669 170.291 234.142 169.383C232.656 169.302 231.559 170.47 231.559 170.47" stroke="#14142B" stroke-width="1.35073" stroke-linecap="round" stroke-linejoin="round"/>
<path d="M224.068 182.404C226.552 182.404 228.566 180.39 228.566 177.906C228.566 175.422 226.552 173.408 224.068 173.408C221.584 173.408 219.57 175.422 219.57 177.906C219.57 180.39 221.584 182.404 224.068 182.404Z" fill="white" stroke="#14142B" stroke-width="1.35073" stroke-linecap="round" stroke-linejoin="round"/>
<path d="M215.759 175.566C217.598 175.566 219.089 174.075 219.089 172.236C219.089 170.398 217.598 168.907 215.759 168.907C213.92 168.907 212.43 170.398 212.43 172.236C212.43 174.075 213.92 175.566 215.759 175.566Z" fill="white"/>
<path d="M212.969 175.765L221.59 181.661L226.544 174.151L218.22 168.468L212.969 175.765Z" fill="white"/>
<path d="M212.969 175.769L221.59 181.661" stroke="#14142B" stroke-width="1.35073" stroke-linecap="round" stroke-linejoin="round"/>
<path d="M226.541 174.151L218.228 168.471C217.548 168.011 216.747 167.766 215.926 167.766C215.106 167.766 214.304 168.011 213.625 168.471" stroke="#14142B" stroke-width="1.35073" stroke-linecap="round" stroke-linejoin="round"/>
<path d="M222.426 182.097C225.205 183.201 234.062 184.616 235.97 180.645C237.878 176.674 231.148 173.81 229.139 173.432C227.13 173.054 223.679 173.432 223.679 173.432" fill="white"/>
<path d="M222.426 182.097C225.205 183.201 234.062 184.616 235.97 180.645C237.878 176.674 231.148 173.81 229.139 173.432C227.13 173.054 223.679 173.432 223.679 173.432" stroke="#14142B" stroke-width="1.35073" stroke-linecap="round" stroke-linejoin="round"/>
<path d="M215.068 183.785C217.552 183.785 219.566 181.772 219.566 179.287C219.566 176.803 217.552 174.79 215.068 174.79C212.584 174.79 210.57 176.803 210.57 179.287C210.57 181.772 212.584 183.785 215.068 183.785Z" fill="white" stroke="#14142B" stroke-width="1.35073" stroke-linecap="round" stroke-linejoin="round"/>
<path d="M207.468 178.693C209.247 178.693 210.689 177.251 210.689 175.471C210.689 173.692 209.247 172.25 207.468 172.25C205.688 172.25 204.246 173.692 204.246 175.471C204.246 177.251 205.688 178.693 207.468 178.693Z" fill="white"/>
<path d="M204.895 179.162L213.222 183.387L217.206 175.326L209.784 171.615L204.895 179.162Z" fill="white"/>
<path d="M204.895 179.162L213.222 183.387" stroke="#14142B" stroke-width="1.35073" stroke-linecap="round" stroke-linejoin="round"/>
<path d="M217.216 175.326L209.787 171.612C208.709 171.074 207.467 170.965 206.312 171.308" stroke="#14142B" stroke-width="1.35073" stroke-linecap="round" stroke-linejoin="round"/>
<path d="M219.518 179.973L220.163 174.479C220.218 174.013 220.162 173.54 220 173.1C219.838 172.659 219.574 172.263 219.23 171.944C218.887 171.624 218.473 171.39 218.022 171.26C217.571 171.13 217.096 171.108 216.635 171.196C215.501 171.413 214.444 171.923 213.57 172.677C212.697 173.431 212.037 174.402 211.657 175.492L210.691 178.261" fill="white"/>
<path d="M219.518 179.973L220.163 174.479C220.218 174.013 220.162 173.54 220 173.1C219.838 172.659 219.574 172.263 219.23 171.944C218.887 171.624 218.473 171.39 218.022 171.26C217.571 171.13 217.096 171.108 216.635 171.196V171.196C215.501 171.413 214.444 171.923 213.57 172.677C212.697 173.431 212.037 174.402 211.657 175.492L210.691 178.261" stroke="#14142B" stroke-width="1.35073" stroke-linecap="round" stroke-linejoin="round"/>
<path d="M205.185 185.771C207.259 185.771 208.94 184.09 208.94 182.016C208.94 179.942 207.259 178.261 205.185 178.261C203.111 178.261 201.43 179.942 201.43 182.016C201.43 184.09 203.111 185.771 205.185 185.771Z" fill="white" stroke="#14142B" stroke-width="1.35073" stroke-linecap="round" stroke-linejoin="round"/>
<path d="M199.505 180.462C200.917 180.462 202.062 179.318 202.062 177.906C202.062 176.494 200.917 175.35 199.505 175.35C198.094 175.35 196.949 176.494 196.949 177.906C196.949 179.318 198.094 180.462 199.505 180.462Z" fill="white"/>
<path d="M196.836 180.547L202.968 185.038L207.767 179.287L201.597 174.786L196.836 180.547Z" fill="white"/>
<path d="M196.836 180.547L202.968 185.038" stroke="#14142B" stroke-width="1.35073" stroke-linecap="round" stroke-linejoin="round"/>
<path d="M207.765 179.288L201.596 174.79C200.775 174.209 199.367 174.79 199.367 174.79" stroke="#14142B" stroke-width="1.35073" stroke-linecap="round" stroke-linejoin="round"/>
<path d="M208.859 182.83L209.588 175.303C209.625 174.937 209.572 174.568 209.432 174.229C209.293 173.889 209.072 173.589 208.788 173.355C208.505 173.121 208.169 172.961 207.809 172.888C207.449 172.816 207.076 172.833 206.725 172.939C205.911 173.182 205.168 173.615 204.555 174.202C203.942 174.789 203.477 175.514 203.199 176.316L201.828 180.327" fill="white"/>
<path d="M208.859 182.83L209.588 175.303C209.625 174.937 209.572 174.568 209.432 174.229C209.293 173.889 209.072 173.589 208.788 173.355C208.505 173.121 208.169 172.961 207.809 172.888C207.449 172.816 207.076 172.833 206.725 172.939V172.939C205.911 173.182 205.168 173.615 204.555 174.202C203.942 174.789 203.477 175.514 203.199 176.316L201.828 180.327" stroke="#14142B" stroke-width="1.35073" stroke-linecap="round" stroke-linejoin="round"/>
<path d="M222.913 158.425C225.27 158.425 227.181 156.514 227.181 154.157C227.181 151.8 225.27 149.889 222.913 149.889C220.556 149.889 218.645 151.8 218.645 154.157C218.645 156.514 220.556 158.425 222.913 158.425Z" fill="white" stroke="#14142B" stroke-width="1.35073" stroke-linecap="round" stroke-linejoin="round"/>
<path d="M202.05 168.478C205.205 168.478 207.763 165.92 207.763 162.765C207.763 159.609 205.205 157.051 202.05 157.051C198.894 157.051 196.336 159.609 196.336 162.765C196.336 165.92 198.894 168.478 202.05 168.478Z" fill="white"/>
<path d="M195.945 153.664C205.866 147.643 212.829 148.835 214.204 149.017C215.06 149.155 215.84 149.593 216.402 150.253L222.909 149.889L223.284 158.408C223.284 158.408 217.915 158.425 217.135 162.302L195.945 153.664Z" fill="white"/>
<path d="M223.302 158.408C223.302 158.408 217.932 158.425 217.152 162.302" stroke="#14142B" stroke-width="1.35073" stroke-linecap="round" stroke-linejoin="round"/>
<path d="M195.945 153.664C205.866 147.643 212.829 148.835 214.204 149.017C215.06 149.155 215.84 149.593 216.402 150.253L222.909 149.889" stroke="#14142B" stroke-width="1.35073" stroke-linecap="round" stroke-linejoin="round"/>
<path d="M222.914 149.889C227.054 149.889 233.652 147.964 235.645 149.271C237.637 150.578 235.55 159.161 223.289 158.408" fill="white"/>
<path d="M222.914 149.889C227.054 149.889 233.652 147.964 235.645 149.271C237.637 150.578 235.55 159.161 223.289 158.408" stroke="#14142B" stroke-width="1.35073" stroke-linecap="round" stroke-linejoin="round"/>
<path d="M196.336 157.051C196.336 157.051 199.611 166 213.092 164.713" stroke="#14142B" stroke-width="1.35073" stroke-linecap="round" stroke-linejoin="round"/>
<path d="M128.878 397.458C133.945 397.458 138.053 393.35 138.053 388.283C138.053 383.216 133.945 379.108 128.878 379.108C123.811 379.108 119.703 383.216 119.703 388.283C119.703 393.35 123.811 397.458 128.878 397.458Z" fill="#14142B" stroke="#14142B" stroke-width="1.35073" stroke-linecap="round" stroke-linejoin="round"/>
<path d="M124.034 403.478H109.652V407.325H124.034V403.478Z" fill="white" stroke="#14142B" stroke-width="1.35073" stroke-linecap="round" stroke-linejoin="round"/>
<path d="M169.018 403.478H124.039L129.628 407.325H169.018V403.478Z" fill="white" stroke="#14142B" stroke-width="1.35073" stroke-linecap="round" stroke-linejoin="round"/>
<path d="M110.391 403.478C107.119 401.007 106.167 393.665 112.947 386.064C119.728 378.463 127.505 379.108 128.879 379.108C130.254 379.108 136.957 380.759 151.98 393.128H159.858C166.362 393.128 171.447 397.616 167.875 403.478H110.391Z" fill="#14142B" stroke="#14142B" stroke-width="1.35073" stroke-linecap="round" stroke-linejoin="round"/>
<path d="M153.938 395.371H161.427C163.899 395.371 165.756 396.883 166.303 397.913" stroke="white" stroke-width="1.35073" stroke-linecap="round" stroke-linejoin="round"/>
<path d="M86.8662 397.458C91.9334 397.458 96.0411 393.35 96.0411 388.283C96.0411 383.216 91.9334 379.108 86.8662 379.108C81.7991 379.108 77.6914 383.216 77.6914 388.283C77.6914 393.35 81.7991 397.458 86.8662 397.458Z" fill="#14142B" stroke="#14142B" stroke-width="1.35073" stroke-linecap="round" stroke-linejoin="round"/>
<path d="M91.704 407.325H106.086V403.478H91.704V407.325Z" fill="white" stroke="#14142B" stroke-width="1.35073" stroke-linecap="round" stroke-linejoin="round"/>
<path d="M46.7344 403.478H91.7103L86.1217 407.325H46.7344V403.478Z" fill="white" stroke="#14142B" stroke-width="1.35073" stroke-linecap="round" stroke-linejoin="round"/>
<path d="M105.358 403.478C108.63 401.007 109.583 393.665 102.802 386.064C96.0214 378.463 88.2445 379.108 86.8702 379.108C85.4958 379.108 78.7928 380.759 63.7693 393.128H55.8912C49.3874 393.128 44.3019 397.616 47.8746 403.478H105.358Z" fill="#14142B" stroke="#14142B" stroke-width="1.35073" stroke-linecap="round" stroke-linejoin="round"/>
<path d="M61.8113 395.371H54.3215C51.8496 395.371 49.9924 396.883 49.4453 397.913" stroke="white" stroke-width="1.35073" stroke-linecap="round" stroke-linejoin="round"/>
<path d="M96.5069 58.1133C102.303 58.1133 107.002 53.4144 107.002 47.6181C107.002 41.8218 102.303 37.1229 96.5069 37.1229C90.7106 37.1229 86.0117 41.8218 86.0117 47.6181C86.0117 53.4144 90.7106 58.1133 96.5069 58.1133Z" fill="white" stroke="#14142B" stroke-width="1.35073" stroke-linecap="round" stroke-linejoin="round"/>
<path d="M97.7158 83.463C104.18 83.463 109.42 78.2229 109.42 71.7589C109.42 65.2949 104.18 60.0548 97.7158 60.0548C91.2518 60.0548 86.0117 65.2949 86.0117 71.7589C86.0117 78.2229 91.2518 83.463 97.7158 83.463Z" fill="white" stroke="#14142B" stroke-width="1.35073" stroke-linecap="round" stroke-linejoin="round"/>
<path d="M86.0117 71.7592V47.6182L106.816 45.6597L109.295 70.0843L86.0117 71.7592Z" fill="white"/>
<path d="M86.0117 71.7591V47.6182" stroke="#14142B" stroke-width="1.35073" stroke-linecap="round" stroke-linejoin="round"/>
<path d="M106.812 45.6597L109.291 70.0843" stroke="#14142B" stroke-width="1.35073" stroke-linecap="round" stroke-linejoin="round"/>
<path d="M73.1628 43.8833C73.1628 43.8833 63.6131 47.868 60.7969 59.5484C60.7969 59.5484 64.5755 66.1433 73.6086 63.3946C73.6086 63.3946 72.5955 53.639 75.9116 48.9317" fill="#14142B"/>
<path d="M73.1628 43.8833C73.1628 43.8833 63.6131 47.868 60.7969 59.5484C60.7969 59.5484 64.5755 66.1433 73.6086 63.3946C73.6086 63.3946 72.5955 53.639 75.9116 48.9317" stroke="#14142B" stroke-width="1.35073" stroke-linecap="round" stroke-linejoin="round"/>
<path d="M76.1802 38.7977L73.4179 40.709C72.8159 41.1239 72.3591 41.7173 72.112 42.4054C71.8648 43.0936 71.8397 43.8419 72.0402 44.5451C72.5556 46.3667 73.3915 48.0819 74.5087 49.6103C74.9853 50.2465 75.6647 50.7011 76.4347 50.8988C77.2047 51.0965 78.019 51.0255 78.7432 50.6977L80.9922 49.6846" fill="white"/>
<path d="M76.1802 38.7977L73.4179 40.709C72.8159 41.1239 72.3591 41.7173 72.112 42.4054C71.8648 43.0936 71.8397 43.8419 72.0402 44.5451C72.5556 46.3667 73.3915 48.0819 74.5087 49.6103C74.9853 50.2465 75.6647 50.7011 76.4347 50.8988C77.2047 51.0965 78.019 51.0255 78.7432 50.6977L80.9922 49.6846" stroke="#14142B" stroke-width="1.35073" stroke-linecap="round" stroke-linejoin="round"/>
<path d="M117.751 14.2012C117.751 14.2012 121.83 15.9876 123.296 22.721C124.761 29.4544 126.392 35.509 127.233 38.6596C128.074 41.8102 133.143 49.3101 134.79 51.576C136.438 53.8418 135.466 57.347 134.378 58.1743C133.291 59.0016 129.762 61.2641 129.762 61.2641C129.762 61.2641 130.137 64.0803 129.215 65.4108C128.293 66.7413 125.187 68.6492 121.519 68.45C118.403 68.2676 117.008 66.7075 117.008 66.7075H95.6293C92.3336 66.7075 89.7199 65.0191 90.088 58.9239C90.4561 52.8288 91.5771 40.5878 91.5771 40.5878C91.5771 40.5878 84.4858 25.8986 91.0943 17.6557C97.7027 9.41288 110.471 10.149 117.751 14.2012Z" fill="white" stroke="#14142B" stroke-width="1.35073" stroke-linecap="round" stroke-linejoin="round"/>
<path d="M94.1164 36.7819C94.1164 36.7819 95.3962 45.5785 98.6954 54.0949L95.0315 55.3781C93.5715 52.0201 92.2822 48.5905 91.1684 45.1024L90.412 54.257C90.412 54.257 80.9231 56.0197 76.8 45.9432C72.6769 35.8668 72.2211 25.6991 77.3505 18.9286C82.4799 12.1581 98.513 1.6156 108.039 1.6156C117.565 1.6156 123.063 9.40257 123.704 12.9752C124.346 16.5479 120.04 18.9185 115.002 18.9185C109.964 18.9185 104.098 15.805 96.129 18.0034C96.129 18.0034 98.8777 26.2496 98.3273 30.9197C97.8714 34.82 94.1164 36.7819 94.1164 36.7819Z" fill="#14142B" stroke="#14142B" stroke-width="1.35073" stroke-linecap="round" stroke-linejoin="round"/>
<path d="M129.758 61.2637C129.61 59.994 128.887 58.758 125.625 58.7918" stroke="#14142B" stroke-width="1.35073" stroke-linecap="round" stroke-linejoin="round"/>
<path d="M91.1676 45.1022C91.1676 45.1022 89.1685 39.8715 84.9778 40.5705C80.7872 41.2695 81.4828 50.5355 90.6847 50.8158L91.1676 45.1022Z" fill="white" stroke="#14142B" stroke-width="1.35073" stroke-linecap="round" stroke-linejoin="round"/>
<path d="M87.4688 50.2723V47.5911" stroke="#14142B" stroke-width="1.35073" stroke-linecap="round" stroke-linejoin="round"/>
<path d="M87.4688 50.2722V51.4372" stroke="white" stroke-width="1.35073" stroke-linecap="round" stroke-linejoin="round"/>
<path d="M122.6 35.7756C123.134 37.9026 124.073 39.9068 125.366 41.6783C127.52 44.6533 127.885 45.0552 127.841 45.8453C127.797 46.6355 125.548 48.7292 121.52 49.6915" stroke="#14142B" stroke-width="1.35073" stroke-linecap="round" stroke-linejoin="round"/>
<path d="M122.801 53.1932C122.801 53.1932 124.381 52.1599 125.928 52.6428" stroke="#14142B" stroke-width="1.35073" stroke-linecap="round" stroke-linejoin="round"/>
<path d="M106.996 34.7456C106.996 34.7456 111.933 35.2724 115.003 33.5299" stroke="#14142B" stroke-width="1.35073" stroke-linecap="round" stroke-linejoin="round"/>
<path d="M123.289 30.7373C123.289 30.7373 125.991 29.1806 129.746 30.3996" stroke="#14142B" stroke-width="1.35073" stroke-linecap="round" stroke-linejoin="round"/>
<path d="M112.596 46.2051C115.264 45.774 117.137 43.6283 116.779 41.4127C116.42 39.1972 113.967 37.7506 111.299 38.1818C108.632 38.613 106.759 40.7586 107.117 42.9742C107.475 45.1898 109.928 46.6363 112.596 46.2051Z" fill="white" stroke="#14142B" stroke-width="1.35458" stroke-linecap="round" stroke-linejoin="round"/>
<path d="M109.413 42.4143C110.172 42.4143 110.788 41.7989 110.788 41.0399C110.788 40.2809 110.172 39.6655 109.413 39.6655C108.654 39.6655 108.039 40.2809 108.039 41.0399C108.039 41.7989 108.654 42.4143 109.413 42.4143Z" fill="#14142B"/>
<path d="M128.322 41.8167C130.56 41.8167 132.374 40.0024 132.374 37.7645C132.374 35.5265 130.56 33.7123 128.322 33.7123C126.084 33.7123 124.27 35.5265 124.27 37.7645C124.27 40.0024 126.084 41.8167 128.322 41.8167Z" fill="white" stroke="#14142B" stroke-width="1.35073" stroke-linecap="round" stroke-linejoin="round"/>
<path d="M127.831 38.7978C128.59 38.7978 129.206 38.1825 129.206 37.4234C129.206 36.6644 128.59 36.0491 127.831 36.0491C127.072 36.0491 126.457 36.6644 126.457 37.4234C126.457 38.1825 127.072 38.7978 127.831 38.7978Z" fill="#14142B"/>
<path d="M103.552 199.069C128.646 199.069 148.988 178.727 148.988 153.633C148.988 128.54 128.646 108.198 103.552 108.198C78.4592 108.198 58.1172 128.54 58.1172 153.633C58.1172 178.727 78.4592 199.069 103.552 199.069Z" fill="#14142B" stroke="#14142B" stroke-width="1.35073" stroke-linecap="round" stroke-linejoin="round"/>
<path d="M52.1836 83.0139L81.5282 75.4465L99.2464 80.2146L115.003 72.8868L150.196 76.4865C151.774 86.4777 152.595 96.574 152.651 106.689C152.651 122.628 148.781 157.996 148.781 157.996H58.3632C58.3632 157.996 52.1836 115.043 52.1836 83.0139Z" fill="#14142B" stroke="#14142B" stroke-width="1.35073" stroke-linecap="round" stroke-linejoin="round"/>
<path d="M81.5273 75.4365L106.209 149.507L115.002 72.8735L99.2456 80.2012L81.5273 75.4365Z" fill="white" stroke="#14142B" stroke-width="1.35073" stroke-linecap="round" stroke-linejoin="round"/>
<path d="M87.4746 93.283L73.6094 104.754L101.627 150.74" stroke="white" stroke-width="1.35073" stroke-linecap="round" stroke-linejoin="round"/>
<path d="M79.8823 99.5673L69.6641 98.1591L70.5285 78.2764" stroke="white" stroke-width="1.35073" stroke-linecap="round" stroke-linejoin="round"/>
<path d="M112.756 92.4928L128.668 100.692L111.199 150.156" stroke="white" stroke-width="1.35073" stroke-linecap="round" stroke-linejoin="round"/>
<path d="M121.43 96.9637L131.114 93.4012L125.975 73.9979" stroke="white" stroke-width="1.35073" stroke-linecap="round" stroke-linejoin="round"/>
<path d="M99.2422 80.2009L106.205 149.507" stroke="#14142B" stroke-width="1.35073" stroke-linecap="round" stroke-linejoin="round"/>
<path d="M85.046 70.584L99.2456 80.2012L110.089 69.3008L115.002 72.8735L108.498 88.0793L99.2456 80.2012L92.1914 89.4537L81.5273 75.4365L85.046 70.584Z" fill="white" stroke="#14142B" stroke-width="1.35073" stroke-linecap="round" stroke-linejoin="round"/>
<path d="M92.6055 195.533H122.288" stroke="white" stroke-width="1.35073" stroke-linecap="round" stroke-linejoin="round"/>
<path d="M58.891 145.215L45.4174 199.714C44.9393 201.65 45.1419 203.691 45.991 205.495C46.8402 207.299 48.2843 208.756 50.0808 209.622L70.6052 219.522C71.9725 220.181 73.4569 220.562 74.9725 220.644C76.4881 220.725 78.0048 220.506 79.4348 219.997C80.8649 219.489 82.18 218.702 83.304 217.682C84.428 216.662 85.3387 215.429 85.9833 214.055L107.163 168.917L127.88 213.083C128.561 214.535 129.54 215.829 130.753 216.88C131.965 217.93 133.384 218.716 134.919 219.184C136.453 219.653 138.069 219.795 139.662 219.601C141.255 219.406 142.789 218.881 144.166 218.057L157.846 209.875C159.445 208.922 160.696 207.48 161.414 205.761C162.132 204.043 162.279 202.14 161.834 200.332L148.198 145.215C148.198 145.215 108.983 173.408 58.891 145.215Z" fill="#14142B" stroke="#14142B" stroke-width="1.35073" stroke-linecap="round" stroke-linejoin="round"/>
<path d="M110.468 161.741C111.283 161.741 111.944 161.081 111.944 160.266C111.944 159.451 111.283 158.79 110.468 158.79C109.653 158.79 108.992 159.451 108.992 160.266C108.992 161.081 109.653 161.741 110.468 161.741Z" fill="white"/>
<path d="M98.6914 186.997H115.653L107.174 168.914L98.6914 186.997Z" fill="white" stroke="#14142B" stroke-width="1.35073" stroke-linecap="round" stroke-linejoin="round"/>
<path d="M107.168 168.914V186.997" stroke="#14142B" stroke-width="1.35073" stroke-linecap="round" stroke-linejoin="round"/>
<path d="M129.613 245.716C143.099 245.716 154.031 234.784 154.031 221.298C154.031 207.813 143.099 196.88 129.613 196.88C116.128 196.88 105.195 207.813 105.195 221.298C105.195 234.784 116.128 245.716 129.613 245.716Z" fill="#14142B" stroke="#14142B" stroke-width="1.35073" stroke-linecap="round" stroke-linejoin="round"/>
<path d="M153.925 218.979C154.996 239.689 158.93 282.713 158.93 300.91L112.704 303.72C112.704 303.72 109.915 294.562 109.604 291.266C109.294 287.97 105.353 253.659 105.16 248.3C104.968 242.94 105.309 221.285 105.309 221.285L153.925 218.979Z" fill="#14142B" stroke="#14142B" stroke-width="1.35073" stroke-linecap="round" stroke-linejoin="round"/>
<path d="M80.8827 245.716C94.3683 245.716 105.301 234.784 105.301 221.298C105.301 207.813 94.3683 196.88 80.8827 196.88C67.3971 196.88 56.4648 207.813 56.4648 221.298C56.4648 234.784 67.3971 245.716 80.8827 245.716Z" fill="#14142B" stroke="#14142B" stroke-width="1.35073" stroke-linecap="round" stroke-linejoin="round"/>
<path d="M105.302 221.298C105.302 229.919 106.082 243.332 105.96 249.478C105.839 255.624 102.634 291.766 102.361 294.39C102.087 297.014 103.596 300.161 103.596 301.674C103.596 303.186 100.51 304.085 99.8482 306.334L54.0888 300.931C54.0888 300.931 53.3695 277.968 56.5674 218.999L105.302 221.298Z" fill="#14142B" stroke="#14142B" stroke-width="1.35073" stroke-linecap="round" stroke-linejoin="round"/>
<path d="M135.726 324.109C148.538 324.109 158.925 313.723 158.925 300.911C158.925 288.098 148.538 277.712 135.726 277.712C122.914 277.712 112.527 288.098 112.527 300.911C112.527 313.723 122.914 324.109 135.726 324.109Z" fill="#14142B" stroke="#14142B" stroke-width="1.35073" stroke-linecap="round" stroke-linejoin="round"/>
<path d="M158.916 300.91C158.916 320.496 156.492 352.09 155.121 364.732C153.75 377.375 153.334 388.286 152.233 388.286H110.084C109.071 388.286 109.979 369.818 110.084 368.582C110.188 367.346 112.522 365.009 112.522 365.009C112.522 365.009 109.598 359.924 109.618 358.549C109.638 357.175 110.874 336.151 111.148 334.091C111.421 332.031 112.934 329.006 113.346 327.084C113.758 325.163 112.724 314.59 112.691 303.72L158.916 300.91Z" fill="#14142B" stroke="#14142B" stroke-width="1.35073" stroke-linecap="round" stroke-linejoin="round"/>
<path d="M112.539 365.006C114.187 363.537 117.213 360.792 117.213 360.792" stroke="white" stroke-width="1.35073" stroke-linecap="round" stroke-linejoin="round"/>
<path d="M113.902 388.282H143.034" stroke="white" stroke-width="1.35073" stroke-linecap="round" stroke-linejoin="round"/>
<path d="M77.2886 324.109C90.101 324.109 100.487 313.723 100.487 300.911C100.487 288.098 90.101 277.712 77.2886 277.712C64.4763 277.712 54.0898 288.098 54.0898 300.911C54.0898 313.723 64.4763 324.109 77.2886 324.109Z" fill="#14142B" stroke="#14142B" stroke-width="1.35073" stroke-linecap="round" stroke-linejoin="round"/>
<path d="M54.0898 300.91C54.0898 321.995 58.115 353.326 59.3543 361.568C60.5936 369.811 63.4741 388.282 65.2604 388.282H105.975C106.758 388.282 105.316 358.479 105.043 356.28C104.769 354.082 102.088 351.813 102.088 351.813C102.223 351.262 104.627 348.436 104.698 347.484C104.769 346.531 101.997 314.283 99.8492 306.32L54.0898 300.91Z" fill="#14142B" stroke="#14142B" stroke-width="1.35073" stroke-linecap="round" stroke-linejoin="round"/>
<path d="M102.084 351.813C100.618 350.256 97.9609 348.699 97.9609 348.699" stroke="white" stroke-width="1.35073" stroke-linecap="round" stroke-linejoin="round"/>
<path d="M73.5703 388.282H99.6799" stroke="white" stroke-width="1.35073" stroke-linecap="round" stroke-linejoin="round"/>
<path d="M39.7122 168.91C47.6476 168.91 54.0806 162.477 54.0806 154.542C54.0806 146.607 47.6476 140.174 39.7122 140.174C31.7767 140.174 25.3438 146.607 25.3438 154.542C25.3438 162.477 31.7767 168.91 39.7122 168.91Z" fill="#14142B" stroke="#14142B" stroke-width="1.35073" stroke-linecap="round" stroke-linejoin="round"/>
<path d="M25.4141 155.778C26.937 166.037 33.2584 181.442 42.0551 196.266C50.8517 211.09 66.787 209.459 75.9922 204.651C85.1974 199.842 83.276 177.167 75.9922 169.869C68.7084 162.572 49.788 144.266 49.788 144.266L25.4141 155.778Z" fill="#14142B" stroke="#14142B" stroke-width="1.35073" stroke-linecap="round" stroke-linejoin="round"/>
<path d="M37.0898 147.282C42.9284 145.769 47.558 146.1 50.1413 147.282" stroke="white" stroke-width="1.35073" stroke-linecap="round" stroke-linejoin="round"/>
<path d="M66.3871 197.86C74.3804 197.86 80.8602 191.38 80.8602 183.387C80.8602 175.394 74.3804 168.914 66.3871 168.914C58.3939 168.914 51.9141 175.394 51.9141 183.387C51.9141 191.38 58.3939 197.86 66.3871 197.86Z" fill="white" stroke="#14142B" stroke-width="1.35073" stroke-linecap="round" stroke-linejoin="round"/>
<path d="M14.1411 213.856C13.5941 217.155 18.3554 223.014 20.3714 225.398" stroke="#14142B" stroke-width="1.35073" stroke-linecap="round" stroke-linejoin="round"/>
<path d="M37.5677 155.552C35.626 157.463 14.7032 210.557 14.1527 213.856C12.7307 213.988 11.3215 214.233 9.93846 214.589C7.91236 215.139 0.871679 217.871 0.685954 218.979C0.500228 220.086 11.3027 238.514 23.6788 246.358C32.3842 251.872 66.9022 244.636 68.2934 244.359C69.6847 244.082 59.6825 228.329 59.6825 228.329C59.6825 228.329 68.3373 224.848 73.1257 222.251C73.1257 222.251 72.3186 237.075 72.2646 244.16C72.2105 251.244 69.5293 269.04 69.5969 270.07C69.6644 271.1 90.2901 274.048 99.0698 268.557C100.171 267.882 99.3467 255.161 99.0698 253.716C99.0698 253.716 105.823 248.857 106.698 247.26C107.178 246.368 104.476 222.845 102.828 214.052C101.18 205.259 93.7446 177.764 90.0807 171.075C86.4169 164.385 81.929 158.986 74.186 156.42C74.186 156.42 73.6997 150.895 69.0566 149.507C64.4134 148.119 41.1842 151.979 37.5677 155.552Z" fill="white" stroke="#14142B" stroke-width="1.35073" stroke-linecap="round" stroke-linejoin="round"/>
<path d="M43.9569 165.969C43.9569 165.969 33.2388 203.55 32.0029 208.494C30.767 213.437 29.943 224.983 30.9054 226.769C31.8678 228.555 46.7765 234.117 59.6692 228.326" stroke="#14142B" stroke-width="1.35073" stroke-linecap="round" stroke-linejoin="round"/>
<path d="M30.4805 186.054C30.4805 186.054 37.0856 169.062 40.1753 163.359C43.2651 157.655 47.9421 156.213 47.9421 156.213" stroke="#14142B" stroke-width="1.35073" stroke-linecap="round" stroke-linejoin="round"/>
<path d="M74.1904 156.419C70.2057 154.771 63.0469 155.183 63.0469 155.183" stroke="#14142B" stroke-width="1.35073" stroke-linecap="round" stroke-linejoin="round"/>
<path d="M73.1133 222.237V201.953" stroke="#14142B" stroke-width="1.35073" stroke-linecap="round" stroke-linejoin="round"/>
<path d="M80.3171 197.948C80.3171 207.534 78.4531 229.977 78.4531 232.634C78.4531 235.292 82.5729 246.925 82.5729 246.925" stroke="#14142B" stroke-width="1.35073" stroke-linecap="round" stroke-linejoin="round"/>
<path d="M99.0606 253.702C97.9631 246.925 96.1295 242.802 96.1295 232.726C96.1295 222.649 94.1034 217.837 93.1072 208.727C92.1111 199.616 90.7266 187 90.7266 187" stroke="#14142B" stroke-width="1.35073" stroke-linecap="round" stroke-linejoin="round"/>
<path d="M54.4564 171.132C52.1501 175.566 43.9883 193.153 43.9883 193.153" stroke="#14142B" stroke-width="1.35073" stroke-linecap="round" stroke-linejoin="round"/>
<path d="M55.6352 175.107C55.8311 173.54 54.1123 172.22 54.4972 170.16C54.8822 168.1 56.7361 166.314 63.277 166.037C69.8179 165.76 74.1267 166.128 77.0139 167.296C79.9011 168.465 84.6962 172.841 85.3817 173.871C86.0672 174.901 86.7763 179.78 85.8815 180.192C86.4068 181.159 86.6303 182.261 86.5231 183.357C86.5064 183.9 86.3556 184.431 86.084 184.903C85.8124 185.374 85.4284 185.771 84.9663 186.058C84.9663 186.058 85.6417 188.28 85.0575 189.918C84.4733 191.555 81.8495 193.156 81.8495 193.156C81.8495 193.156 82.0893 195.446 80.8939 197.279C79.6985 199.113 74.8899 201.585 71.7765 202.361C68.663 203.138 59.5017 201.767 57.533 200.943C55.5643 200.119 53.6294 198.265 53.2512 196.236C52.873 194.206 54.8417 193.659 54.8754 192.562C54.9092 191.464 52.5859 190.586 52.5859 188.388C52.5859 186.19 54.5546 184.488 54.6931 183.768C54.8315 183.049 53.3896 181.55 53.3896 179.146C53.3896 176.741 55.4968 176.208 55.6352 175.107Z" fill="white" stroke="#14142B" stroke-width="1.35073" stroke-linecap="round" stroke-linejoin="round"/>
<path d="M85.8575 180.192C84.4156 178.062 77.5438 175.931 76.1019 175.657C74.6599 175.384 62.5 175.657 62.5 175.657" stroke="#14142B" stroke-width="1.35073" stroke-linecap="round" stroke-linejoin="round"/>
<path d="M84.9551 186.054C83.9421 185.345 64.6942 186.098 61.2734 185.001" stroke="#14142B" stroke-width="1.35073" stroke-linecap="round" stroke-linejoin="round"/>
<path d="M81.8412 193.153C79.6902 194.48 73.2303 195.03 70.826 195.03C68.4217 195.03 63.8191 194.48 62.5156 194.757" stroke="#14142B" stroke-width="1.35073" stroke-linecap="round" stroke-linejoin="round"/>
</g>
<defs>
<clipPath id="clip0_3041_12193">
<rect width="247.63" height="407.07" fill="white" transform="translate(0 0.930176)"/>
</clipPath>
</defs>
</svg>
