<svg width="424" height="394" viewBox="0 0 424 394" fill="none" xmlns="http://www.w3.org/2000/svg">
<g clip-path="url(#clip0_667_2111)">
<path opacity="0.0344828" d="M17.1525 199.628C-5.1509 190.65 -1.72602 158.064 21.9568 153.919L102.623 139.799C116.39 137.39 125.762 124.491 123.799 110.652L112.3 29.5717C108.924 5.76705 138.857 -7.55981 154.288 10.8775L206.848 73.6765C215.819 84.3945 231.676 86.0611 242.678 77.4425L307.147 26.9436C326.074 12.1176 352.582 31.3765 344.331 53.9591L316.225 130.877C311.428 144.005 317.913 158.571 330.879 163.79L406.846 194.372C429.15 203.351 425.725 235.936 402.042 240.082L321.376 254.201C307.609 256.61 298.237 269.51 300.2 283.348L311.699 364.428C315.075 388.233 285.142 401.56 269.711 383.123L217.151 320.324C208.18 309.606 192.323 307.939 181.32 316.558L116.852 367.056C97.9245 381.883 71.4169 362.624 79.6684 340.041L107.774 263.123C112.571 249.995 106.085 235.43 93.12 230.21L17.1525 199.628Z" stroke="#00A7E1" stroke-width="2"/>
<path opacity="0.0689655" d="M20.654 189.961C-1.14897 179.828 3.97661 147.466 27.8439 144.566L106.779 134.974C120.654 133.288 130.688 120.897 129.452 106.976L122.423 27.7707C120.297 3.82203 150.886 -7.92002 165.331 11.2996L213.106 74.8641C221.503 86.0369 237.251 88.5311 248.69 80.5001L313.768 34.8097C333.445 20.9946 358.909 41.6144 349.487 63.7341L318.325 136.89C312.848 149.749 318.562 164.634 331.237 170.525L403.345 204.039C425.148 214.173 420.022 246.535 396.155 249.435L317.219 259.026C303.345 260.712 293.311 273.103 294.546 287.025L301.576 366.23C303.702 390.178 273.113 401.92 258.668 382.701L210.893 319.136C202.496 307.964 186.748 305.469 175.309 313.5L110.231 359.191C90.5534 373.006 65.09 352.386 74.512 330.266L105.673 257.11C111.151 244.252 105.437 229.367 92.7623 223.476L20.654 189.961Z" stroke="#00A7E1" stroke-width="2"/>
<path opacity="0.103448" d="M24.6251 180.666C3.38241 169.406 10.1946 137.356 34.181 135.709L111.14 130.425C125.084 129.467 135.753 117.619 135.247 103.651L132.458 26.5614C131.589 2.53419 162.751 -7.59087 176.17 12.3584L219.226 76.3648C227.027 87.9617 242.623 91.2767 254.466 83.8553L319.834 42.895C340.207 30.1287 364.557 52.0529 353.99 73.6492L320.087 142.94C313.944 155.494 318.871 170.658 331.22 177.204L399.376 213.334C420.619 224.595 413.806 256.644 389.82 258.291L312.861 263.575C298.917 264.533 288.249 276.381 288.754 290.349L291.543 367.439C292.412 391.466 261.25 401.591 247.831 381.642L204.775 317.635C196.974 306.038 181.378 302.723 169.535 310.145L104.167 351.105C83.7939 363.871 59.4446 341.947 70.0114 320.351L103.914 251.06C110.057 238.506 105.13 223.342 92.7814 216.796L24.6251 180.666Z" stroke="#00A7E1" stroke-width="2"/>
<path opacity="0.137931" d="M29.0339 171.766C8.40963 159.409 16.8899 127.76 40.9296 127.371L115.684 126.16C129.659 125.933 140.933 114.659 141.16 100.684L142.37 25.9297C142.76 1.88997 174.409 -6.59025 186.766 14.034L225.192 78.168C232.375 90.1573 247.776 94.2839 259.992 87.4925L325.337 51.1639C346.35 39.4814 369.519 62.6499 357.836 83.6636L321.508 149.008C314.716 161.224 318.843 176.625 330.832 183.808L394.966 222.234C415.59 234.591 407.11 266.24 383.07 266.63L308.316 267.841C294.341 268.067 283.067 279.341 282.841 293.316L281.63 368.071C281.24 392.11 249.591 400.591 237.234 379.966L198.808 315.832C191.625 303.843 176.224 299.716 164.008 306.508L98.6635 342.836C77.6497 354.519 54.4813 331.35 66.1639 310.337L102.492 244.992C109.284 232.776 105.157 217.375 93.1678 210.192L29.0339 171.766Z" stroke="#00A7E1" stroke-width="2"/>
<path opacity="0.172414" d="M33.8519 163.28C13.9027 149.86 24.0277 118.699 48.0548 119.568L120.396 122.185C134.363 122.69 146.212 112.022 147.17 98.078L152.129 25.8596C153.776 1.87321 185.825 -4.93904 197.086 16.3037L230.99 80.2616C237.536 92.6104 252.699 97.5374 265.254 91.3947L330.276 59.58C351.873 49.0131 373.797 73.3625 361.03 93.736L322.593 155.077C315.172 166.92 318.487 182.516 330.084 190.317L390.148 230.721C410.097 244.14 399.972 275.302 375.945 274.433L303.603 271.815C289.636 271.31 277.787 281.979 276.83 295.923L271.871 368.141C270.224 392.127 238.175 398.94 226.914 377.697L193.01 313.739C186.464 301.39 171.3 296.463 158.746 302.606L93.7231 334.421C72.1268 344.987 50.2026 320.638 62.969 300.265L101.406 238.924C108.827 227.08 105.512 211.485 93.9155 203.684L33.8519 163.28Z" stroke="#00A7E1" stroke-width="2"/>
<path opacity="0.206897" d="M39.049 155.226C19.8294 140.781 31.5714 110.192 55.5201 112.317L125.259 118.507C139.181 119.743 151.571 109.709 153.257 95.834L161.702 26.3327C164.603 2.46535 196.964 -2.66024 207.098 19.1427L236.607 82.6328C242.498 95.3073 257.383 101.021 270.241 95.5439L334.654 68.1069C356.774 58.6848 377.394 84.1482 363.578 103.826L323.349 161.126C315.318 172.565 317.812 188.313 328.985 196.71L384.952 238.774C404.172 253.22 392.43 283.809 368.481 281.683L298.743 275.494C284.821 274.258 272.43 284.292 270.744 298.166L262.299 367.668C259.399 391.535 227.037 396.661 216.903 374.858L187.394 311.368C181.504 298.693 166.619 292.979 153.76 298.457L89.3473 325.894C67.2275 335.316 46.6077 309.852 60.4228 290.175L100.652 232.874C108.683 221.435 106.189 205.688 95.0165 197.29L39.049 155.226Z" stroke="#00A7E1" stroke-width="2"/>
<path opacity="0.241379" d="M44.5905 147.62C26.1532 132.189 39.48 102.256 63.2846 105.632L130.251 115.13C144.089 117.092 156.988 107.72 159.398 93.9531L171.059 27.3293C175.205 3.6465 207.79 0.221613 216.769 22.525L242.027 85.2684C247.247 98.2339 261.813 104.719 274.94 99.9222L338.469 76.7093C361.051 68.4578 380.31 94.9654 365.484 113.893L323.776 167.139C315.157 178.142 316.824 193.999 327.542 202.969L379.409 246.38C397.847 261.811 384.52 291.744 360.715 288.368L293.748 278.871C279.91 276.908 267.011 286.28 264.602 300.047L252.94 366.671C248.795 390.354 216.209 393.779 207.231 371.475L181.972 308.732C176.753 295.766 162.187 289.281 149.059 294.078L85.5309 317.291C62.9483 325.542 43.6894 299.035 58.5154 280.107L100.224 226.861C108.842 215.858 107.176 200.002 96.4577 191.031L44.5905 147.62Z" stroke="#00A7E1" stroke-width="2"/>
<path opacity="0.275862" d="M50.4453 140.477C32.8409 124.102 47.716 94.9078 71.3114 99.5251L135.357 112.058C149.074 114.742 162.446 106.058 165.573 92.4358L180.173 28.8293C185.552 5.39594 218.273 3.6811 226.072 26.4239L247.241 88.1558C251.775 101.377 265.981 108.615 279.342 104.512L341.727 85.3532C364.71 78.2949 382.556 105.774 366.759 123.9L323.883 173.099C314.7 183.636 315.534 199.558 325.768 209.077L373.553 253.525C391.157 269.9 376.282 299.094 352.687 294.477L288.641 281.944C274.924 279.26 261.552 287.944 258.425 301.566L243.825 365.172C238.446 388.606 205.725 390.321 197.926 367.578L176.757 305.846C172.223 292.625 158.017 285.387 144.656 289.49L82.2711 308.649C59.2876 315.707 41.4424 288.228 57.2387 270.102L100.115 220.903C109.298 210.366 108.464 194.444 98.2299 184.925L50.4453 140.477Z" stroke="#00A7E1" stroke-width="2"/>
<path opacity="0.310345" d="M56.5826 133.806C39.8593 116.532 56.2419 88.1561 79.5632 94.0019L140.561 109.292C154.118 112.69 167.926 104.718 171.762 91.2779L189.019 30.8074C195.617 7.68763 228.383 7.68763 234.981 30.8074L252.238 91.2779C256.074 104.718 269.882 112.69 283.439 109.292L344.437 94.0019C367.758 88.1561 384.141 116.532 367.417 133.806L323.677 178.986C313.956 189.028 313.956 204.972 323.677 215.014L367.417 260.195C384.141 277.469 367.758 305.844 344.437 299.998L283.439 284.708C269.882 281.31 256.074 289.282 252.238 302.722L234.981 363.193C228.383 386.313 195.617 386.313 189.019 363.193L171.762 302.722C167.926 289.282 154.118 281.31 140.561 284.708L79.5633 299.998C56.2419 305.844 39.8593 277.469 56.5825 260.195L100.323 215.014C110.044 204.972 110.044 189.028 100.323 178.986L56.5826 133.806Z" stroke="#00A7E1" stroke-width="2"/>
<path opacity="0.344828" d="M62.9653 127.618C47.169 109.492 65.0142 82.013 87.9977 89.0713L145.84 106.835C159.201 110.938 173.407 103.7 177.941 90.4789L197.569 33.2419C205.368 10.4992 238.088 12.2139 243.468 35.6473L257.005 94.6224C260.132 108.245 273.504 116.929 287.22 114.244L346.603 102.624C370.198 98.0071 385.073 127.201 367.469 143.576L323.164 184.788C312.93 194.307 312.096 210.229 321.278 220.766L361.033 266.383C376.829 284.508 358.984 311.987 336.001 304.929L278.158 287.165C264.797 283.062 250.591 290.301 246.057 303.521L226.429 360.758C218.63 383.501 185.91 381.786 180.531 358.353L166.993 299.378C163.866 285.756 150.495 277.072 136.778 279.756L77.3954 291.376C53.8 295.993 38.9249 266.799 56.5293 250.424L100.834 209.213C111.068 199.694 111.903 183.771 102.72 173.235L62.9653 127.618Z" stroke="#00A7E1" stroke-width="2"/>
<path opacity="0.37931" d="M69.5636 121.92C54.7376 102.993 73.9965 76.485 96.5791 84.7365L151.181 104.688C164.309 109.485 178.875 103 184.094 90.034L205.803 36.1067C214.782 13.8033 247.368 17.2282 251.513 40.911L261.536 98.1735C263.946 111.941 276.845 121.313 290.683 119.35L348.24 111.187C372.044 107.811 385.371 137.744 366.934 153.175L322.355 190.486C311.637 199.457 309.97 215.313 318.589 226.316L354.437 272.081C369.263 291.008 350.004 317.516 327.421 309.264L272.819 289.313C259.691 284.516 245.126 291.001 239.906 303.967L218.197 357.894C209.218 380.198 176.632 376.773 172.487 353.09L162.464 295.827C160.055 282.06 147.156 272.688 133.317 274.651L75.7603 282.814C51.9556 286.19 38.6288 256.257 57.0661 240.826L101.646 203.515C112.364 194.544 114.03 178.687 105.411 167.685L69.5636 121.92Z" stroke="#00A7E1" stroke-width="2"/>
<path opacity="0.413793" d="M76.3404 116.717C62.5252 97.0395 83.1451 71.5762 105.265 80.9983L156.562 102.849C169.421 108.326 184.306 102.612 190.197 89.9376L213.697 39.375C223.831 17.572 256.193 22.6976 259.093 46.5649L265.818 101.915C267.504 115.79 279.895 125.823 293.817 124.588L349.356 119.659C373.305 117.533 385.047 148.122 365.827 162.567L321.255 196.067C310.083 204.464 307.588 220.212 315.619 231.651L347.658 277.284C361.473 296.962 340.853 322.425 318.733 313.003L267.436 291.152C254.577 285.675 239.692 291.389 233.801 304.063L210.301 354.626C200.167 376.429 167.805 371.303 164.905 347.436L158.18 292.086C156.494 278.212 144.103 268.178 130.181 269.413L74.642 274.343C50.6933 276.468 38.9514 245.879 58.171 231.434L102.743 197.934C113.916 189.537 116.41 173.789 108.379 162.35L76.3404 116.717Z" stroke="#00A7E1" stroke-width="2"/>
<path opacity="0.448276" d="M83.2664 112.011C70.5 91.638 92.4242 67.2887 114.021 77.8555L161.97 101.317C174.524 107.459 189.688 102.532 196.234 90.1834L221.236 43.0191C232.497 21.7764 264.546 28.5887 266.193 52.5751L269.85 105.831C270.807 119.775 282.656 130.443 296.623 129.938L349.97 128.008C373.997 127.139 384.122 158.3 364.173 171.72L319.88 201.515C308.283 209.316 304.968 224.911 312.39 236.755L340.734 281.989C353.501 302.363 331.576 326.712 309.98 316.145L262.031 292.684C249.476 286.542 234.313 291.469 227.766 303.817L202.765 350.982C191.504 372.224 159.455 365.412 157.808 341.426L154.151 288.17C153.193 274.226 141.345 263.557 127.377 264.063L74.0307 265.993C50.0036 266.862 39.8786 235.7 59.8279 222.281L104.12 192.486C115.717 184.685 119.032 169.089 111.611 157.246L83.2664 112.011Z" stroke="#00A7E1" stroke-width="2"/>
<path opacity="0.482759" d="M90.3045 107.805C78.6219 86.7908 101.79 63.6223 122.804 75.3049L167.383 100.089C179.599 106.88 195 102.753 202.183 90.7642L228.398 47.0111C240.755 26.3868 272.404 34.8671 272.793 58.9068L273.619 109.905C273.846 123.88 285.12 135.154 299.095 135.381L350.093 136.207C374.133 136.596 382.613 168.245 361.989 180.602L318.236 206.817C306.247 214 302.12 229.401 308.911 241.617L333.695 286.196C345.378 307.21 322.209 330.378 301.196 318.696L256.617 293.912C244.401 287.12 229 291.247 221.817 303.236L195.602 346.99C183.245 367.614 151.596 359.134 151.207 335.094L150.38 284.095C150.154 270.12 138.88 258.846 124.905 258.62L73.9064 257.794C49.8667 257.404 41.3864 225.756 62.0107 213.398L105.764 187.184C117.753 180 121.88 164.599 115.088 152.384L90.3045 107.805Z" stroke="#00A7E1" stroke-width="2"/>
<path opacity="0.517241" d="M97.4236 104.095C86.8568 82.4987 111.206 60.5745 131.58 73.3408L172.787 99.1623C184.631 106.584 200.226 103.269 208.027 91.6717L235.17 51.322C248.59 31.3727 279.751 41.4977 278.882 65.5248L277.124 114.122C276.618 128.09 287.287 139.939 301.231 140.896L349.746 144.227C373.732 145.874 380.545 177.924 359.302 189.185L316.336 211.961C303.987 218.507 299.06 233.671 305.203 246.225L326.576 289.906C337.142 311.502 312.793 333.427 292.42 320.66L251.212 294.839C239.368 287.417 223.773 290.732 215.972 302.329L188.829 342.679C175.41 362.628 144.248 352.503 145.117 328.476L146.875 279.879C147.381 265.911 136.712 254.062 122.768 253.105L74.2531 249.774C50.2667 248.127 43.4544 216.077 64.6972 204.817L107.663 182.04C120.012 175.494 124.939 160.33 118.796 147.776L97.4236 104.095Z" stroke="#00A7E1" stroke-width="2"/>
<path opacity="0.551724" d="M104.591 100.879C95.169 78.759 120.632 58.1391 140.31 71.9543L178.165 98.5317C189.604 106.563 205.352 104.069 213.749 92.8958L241.539 55.9212C255.984 36.7015 286.573 48.4435 284.447 72.3922L280.358 118.465C279.123 132.387 289.157 144.777 303.031 146.463L348.947 152.043C372.814 154.943 377.94 187.305 356.137 197.438L314.192 216.933C301.518 222.824 295.804 237.709 301.281 250.568L319.407 293.122C328.83 315.241 303.366 335.861 283.689 322.046L245.833 295.469C234.395 287.437 218.647 289.932 210.249 301.104L182.46 338.079C168.015 357.299 137.426 345.557 139.551 321.608L143.64 275.536C144.876 261.614 134.842 249.223 120.967 247.537L75.0515 241.958C51.1842 239.058 46.0586 206.696 67.8616 196.562L109.806 177.067C122.481 171.176 128.194 156.291 122.717 143.433L104.591 100.879Z" stroke="#00A7E1" stroke-width="2"/>
<path opacity="0.586207" d="M111.777 98.1513C103.526 75.5688 130.033 56.3099 148.961 71.1359L183.503 98.1931C194.506 106.812 210.363 105.145 219.333 94.4272L247.495 60.7795C262.926 42.3423 292.859 55.6691 289.483 79.4738L283.322 122.917C281.359 136.755 290.731 149.654 304.498 152.064L347.719 159.629C371.401 163.774 374.826 196.36 352.523 205.338L311.82 221.724C298.854 226.943 292.369 241.509 297.166 254.637L312.225 295.849C320.476 318.432 293.969 337.691 275.041 322.865L240.499 295.808C229.496 287.189 213.639 288.856 204.669 299.574L176.507 333.221C161.076 351.658 131.143 338.332 134.519 314.527L140.68 271.084C142.643 257.246 133.271 244.347 119.504 241.937L76.2834 234.372C52.6006 230.227 49.1757 197.641 71.4791 188.663L112.182 172.277C125.148 167.057 131.633 152.492 126.836 139.364L111.777 98.1513Z" stroke="#00A7E1" stroke-width="2"/>
<path opacity="0.62069" d="M118.946 95.9047C111.887 72.9213 139.367 55.076 157.492 70.8723L188.78 98.1392C199.316 107.322 215.239 106.488 224.758 96.2537L253.024 65.8657C269.399 48.2613 298.593 63.1365 293.976 86.7318L286.006 127.461C283.322 141.178 292.005 154.549 305.628 157.676L346.077 166.961C369.511 172.34 371.226 205.061 348.483 212.86L309.225 226.322C296.004 230.856 288.766 245.062 292.869 258.423L305.053 298.096C312.111 321.079 284.632 338.925 266.506 323.128L235.219 295.861C224.682 286.679 208.76 287.513 199.241 297.747L170.975 328.135C154.6 345.739 125.406 330.864 130.023 307.269L137.993 266.54C140.677 252.823 131.993 239.451 118.371 236.324L77.9211 227.039C54.4877 221.66 52.7729 188.94 75.5157 181.141L114.773 167.679C127.994 163.145 135.233 148.939 131.129 135.578L118.946 95.9047Z" stroke="#00A7E1" stroke-width="2"/>
<path opacity="0.655172" d="M126.072 94.1297C120.226 70.8083 148.602 54.4258 165.876 71.149L193.987 98.3634C204.028 108.085 219.972 108.085 230.014 98.3634L258.125 71.149C275.399 54.4257 303.774 70.8084 297.928 94.1297L288.415 132.081C285.017 145.639 292.989 159.447 306.429 163.282L344.053 174.02C367.173 180.618 367.173 213.383 344.053 219.981L306.429 230.718C292.989 234.554 285.017 248.362 288.415 261.919L297.928 299.871C303.774 323.192 275.399 339.575 258.125 322.851L230.014 295.637C219.972 285.915 204.028 285.915 193.987 295.637L165.876 322.851C148.602 339.575 120.226 323.192 126.072 299.871L135.585 261.919C138.984 248.362 131.012 234.554 117.571 230.718L79.9478 219.981C56.828 213.383 56.828 180.618 79.9478 174.02L117.571 163.282C131.012 159.447 138.984 145.639 135.585 132.081L126.072 94.1297Z" stroke="#00A7E1" stroke-width="2"/>
<path opacity="0.689655" d="M133.124 92.8091C128.507 69.2137 157.701 54.3386 174.076 71.943L199.105 98.8517C208.624 109.086 224.547 109.92 235.083 100.737L262.789 76.5923C280.914 60.796 308.393 78.6412 301.335 101.625L290.546 136.755C286.443 150.116 293.682 164.322 306.903 168.856L341.665 180.777C364.408 188.576 362.693 221.296 339.26 226.675L303.442 234.897C289.819 238.024 281.135 251.396 283.819 265.113L290.877 301.178C295.494 324.774 266.3 339.649 249.925 322.045L224.895 295.136C215.376 284.902 199.454 284.068 188.917 293.25L161.212 317.395C143.087 333.192 115.607 315.346 122.666 292.363L133.454 257.232C137.558 243.872 130.319 229.665 117.098 225.132L82.3355 213.211C59.5927 205.412 61.3075 172.691 84.7409 167.312L120.559 159.09C134.182 155.963 142.865 142.591 140.181 128.875L133.124 92.8091Z" stroke="#00A7E1" stroke-width="2"/>
<path opacity="0.724138" d="M140.072 91.9427C136.696 68.1381 166.628 54.8113 182.06 73.2486L204.122 99.6083C213.092 110.326 228.949 111.993 239.952 103.374L267.012 82.1774C285.94 67.3514 312.447 86.6103 304.196 109.193L292.399 141.479C287.602 154.607 294.087 169.172 307.052 174.392L338.94 187.229C361.243 196.207 357.818 228.793 334.135 232.938L300.276 238.865C286.509 241.274 277.137 254.173 279.1 268.012L283.926 302.045C287.302 325.85 257.37 339.176 241.938 320.739L219.876 294.379C210.906 283.661 195.049 281.995 184.046 290.614L156.986 311.81C138.058 326.636 111.551 307.377 119.802 284.795L131.599 252.509C136.396 239.381 129.911 224.815 116.946 219.596L85.0584 206.759C62.755 197.781 66.1799 165.195 89.8627 161.05L123.722 155.123C137.489 152.713 146.861 139.814 144.898 125.976L140.072 91.9427Z" stroke="#00A7E1" stroke-width="2"/>
<path opacity="0.758621" d="M146.892 91.5099C144.766 67.5612 175.355 55.8192 189.801 75.0388L209.025 100.618C217.423 111.791 233.17 114.285 244.609 106.254L270.798 87.8675C290.475 74.0524 315.938 94.6722 306.516 116.792L293.977 146.231C288.499 159.089 294.213 173.974 306.888 179.865L335.905 193.352C357.708 203.485 352.582 235.847 328.715 238.747L296.951 242.607C283.076 244.293 273.042 256.684 274.278 270.606L277.106 302.479C279.232 326.427 248.643 338.169 234.198 318.95L214.973 293.371C206.576 282.198 190.828 279.704 179.389 287.735L153.201 306.121C133.523 319.936 108.06 299.316 117.482 277.196L130.022 247.758C135.499 234.899 129.785 220.014 117.111 214.123L88.0935 200.637C66.2905 190.503 71.4161 158.141 95.2834 155.241L127.048 151.381C140.922 149.696 150.956 137.305 149.721 123.383L146.892 91.5099Z" stroke="#00A7E1" stroke-width="2"/>
<path opacity="0.793103" d="M153.558 91.4935C152.689 67.4663 183.851 57.3413 197.27 77.2906L213.804 101.869C221.605 113.466 237.201 116.781 249.044 109.36L274.146 93.631C294.519 80.8646 318.868 102.789 308.302 124.385L295.283 150.993C289.14 163.547 294.067 178.711 306.416 185.257L332.588 199.131C353.831 210.392 347.018 242.441 323.032 244.088L293.479 246.118C279.536 247.075 268.867 258.924 269.372 272.891L270.443 302.494C271.313 326.521 240.151 336.646 226.731 316.697L210.198 292.118C202.397 280.521 186.801 277.206 174.957 284.628L149.856 300.357C129.483 313.123 105.133 291.199 115.7 269.602L128.719 242.994C134.862 230.44 129.935 215.276 117.586 208.73L91.4137 194.856C70.1709 183.596 76.9832 151.546 100.97 149.899L130.522 147.87C144.466 146.913 155.135 135.064 154.629 121.096L153.558 91.4935Z" stroke="#00A7E1" stroke-width="2"/>
<path opacity="0.827586" d="M160.042 91.8774C160.431 67.8377 192.08 59.3574 204.437 79.9817L218.441 103.354C225.624 115.343 241.025 119.47 253.241 112.679L277.054 99.4394C298.068 87.7568 321.236 110.925 309.554 131.939L296.315 155.753C289.523 167.968 293.65 183.369 305.639 190.553L329.011 204.556C349.636 216.913 341.155 248.562 317.116 248.951L289.873 249.393C275.898 249.619 264.624 260.893 264.398 274.868L263.956 302.111C263.567 326.15 231.918 334.631 219.561 314.006L205.558 290.634C198.374 278.645 182.973 274.518 170.758 281.31L146.944 294.549C125.93 306.231 102.762 283.063 114.444 262.049L127.684 238.236C134.475 226.02 130.348 210.619 118.359 203.436L94.9868 189.432C74.3625 177.075 82.8428 145.426 106.882 145.037L134.125 144.595C148.1 144.369 159.374 133.095 159.601 119.12L160.042 91.8774Z" stroke="#00A7E1" stroke-width="2"/>
<path opacity="0.862069" d="M166.325 92.6418C167.972 68.6554 200.021 61.8431 211.282 83.0859L222.93 105.06C229.476 117.409 244.64 122.336 257.194 116.193L279.534 105.262C301.13 94.6956 323.054 119.045 310.288 139.418L297.082 160.493C289.661 172.337 292.976 187.932 304.573 195.733L325.209 209.615C345.158 223.034 335.033 254.196 311.006 253.327L286.152 252.427C272.184 251.922 260.336 262.591 259.378 276.535L257.674 301.347C256.027 325.333 223.978 332.145 212.717 310.902L201.069 288.929C194.523 276.58 179.359 271.653 166.805 277.795L144.465 288.726C122.869 299.293 100.945 274.944 113.711 254.57L126.917 233.495C134.338 221.652 131.023 206.056 119.426 198.255L98.7903 184.374C78.841 170.954 88.966 139.792 112.993 140.662L137.847 141.561C151.815 142.066 163.663 131.398 164.621 117.454L166.325 92.6418Z" stroke="#00A7E1" stroke-width="2"/>
<path opacity="0.896552" d="M172.383 93.7661C175.283 69.8988 207.645 64.7732 217.779 86.5762L227.26 106.975C233.151 119.65 248.036 125.363 260.894 119.886L281.59 111.071C303.709 101.649 324.329 127.112 310.514 146.79L297.589 165.2C289.558 176.639 292.052 192.386 303.225 200.784L321.206 214.299C340.426 228.744 328.684 259.333 304.735 257.207L282.329 255.219C268.407 253.983 256.016 264.017 254.33 277.892L251.617 300.222C248.717 324.089 216.355 329.215 206.221 307.412L196.74 287.013C190.85 274.338 175.964 268.625 163.106 274.102L142.41 282.917C120.291 292.339 99.6709 266.876 113.486 247.198L126.412 228.788C134.443 217.349 131.948 201.602 120.776 193.204L102.794 179.689C83.574 165.244 95.3161 134.655 119.265 136.781L141.671 138.769C155.593 140.005 167.984 129.971 169.67 116.096L172.383 93.7661Z" stroke="#00A7E1" stroke-width="2"/>
<path opacity="0.931035" d="M178.196 95.2297C182.342 71.5469 214.927 68.122 223.906 90.4254L231.419 109.088C236.638 122.054 251.204 128.539 264.332 123.742L283.228 116.838C305.811 108.586 325.07 135.094 310.244 154.021L297.838 169.859C289.219 180.862 290.886 196.719 301.604 205.689L317.032 218.602C335.469 234.033 322.142 263.966 298.337 260.59L278.418 257.765C264.58 255.802 251.681 265.174 249.271 278.941L245.803 298.759C241.657 322.441 209.072 325.866 200.093 303.563L192.58 284.9C187.36 271.934 172.795 265.449 159.667 270.246L140.77 277.151C118.188 285.402 98.929 258.895 113.755 239.967L126.161 224.129C134.78 213.126 133.113 197.269 122.395 188.299L106.967 175.386C88.53 159.955 101.857 130.022 125.661 133.398L145.581 136.223C159.419 138.186 172.318 128.814 174.728 115.047L178.196 95.2297Z" stroke="#00A7E1" stroke-width="2"/>
<path opacity="0.965517" d="M183.747 97.0096C189.126 73.5761 221.847 71.8613 229.646 94.6041L235.401 111.387C239.935 124.608 254.141 131.847 267.502 127.744L284.463 122.535C307.446 115.476 325.292 142.956 309.495 161.081L297.838 174.457C288.655 184.994 289.49 200.916 299.724 210.435L312.715 222.52C330.319 238.895 315.444 268.089 291.849 263.471L274.437 260.064C260.72 257.38 247.348 266.064 244.221 279.686L240.252 296.979C234.873 320.412 202.152 322.127 194.353 299.384L188.598 282.601C184.064 269.38 169.858 262.142 156.497 266.245L139.536 271.454C116.553 278.512 98.7077 251.033 114.504 232.907L126.161 219.531C135.344 208.995 134.509 193.072 124.276 183.553L111.284 171.469C93.6798 155.094 108.555 125.9 132.15 130.517L149.563 133.924C163.279 136.609 176.651 127.925 179.778 114.302L183.747 97.0096Z" stroke="#00A7E1" stroke-width="2"/>
<path d="M189.02 99.0818C195.618 75.962 228.384 75.962 234.982 99.0818L239.199 113.859C243.034 127.299 256.842 135.271 270.4 131.872L285.305 128.136C308.626 122.29 325.009 150.666 308.286 167.94L297.597 178.98C287.876 189.022 287.876 204.966 297.597 215.008L308.286 226.048C325.009 243.322 308.626 271.698 285.305 265.852L270.4 262.116C256.842 258.718 243.034 266.69 239.199 280.13L234.982 294.906C228.384 318.026 195.618 318.026 189.02 294.906L184.803 280.13C180.968 266.69 167.16 258.718 153.602 262.116L138.697 265.852C115.375 271.698 98.9928 243.322 115.716 226.048L126.405 215.008C136.126 204.966 136.126 189.022 126.405 178.98L115.716 167.94C98.9928 150.666 115.375 122.29 138.697 128.136L153.602 131.872C167.16 135.271 180.968 127.299 184.803 113.859L189.02 99.0818Z" stroke="#00A7E1" stroke-width="2"/>
</g>
<defs>
<clipPath id="clip0_667_2111">
<rect width="424" height="394" fill="white"/>
</clipPath>
</defs>
</svg>
